<svg enable-background="new 0 0 595.3 595.3" height="316.227766" viewBox="0 0 595.3 595.3" width="316.227766" xmlns="http://www.w3.org/2000/svg"><circle cx="297.6" cy="296.6" r="287.7"/><circle cx="297.6" cy="296.6" fill="none" r="275" stroke="#fff" stroke-miterlimit="10" stroke-width="6.1216"/><path d="m297.6 125.5c94.5 0 171.1 76.6 171.1 171.1s-76.6 171.1-171.1 171.1-171.1-76.6-171.1-171.1 76.6-171.1 171.1-171.1m0-6.1c-23.9 0-47.1 4.7-69 13.9-21.1 8.9-40.1 21.7-56.3 38-16.3 16.3-29.1 35.2-38 56.3-9.2 21.9-13.9 45.1-13.9 69s4.7 47.1 13.9 69c8.9 21.1 21.7 40.1 38 56.3 16.3 16.3 35.2 29.1 56.3 38 21.9 9.2 45.1 13.9 69 13.9s47.1-4.7 69-13.9c21.1-8.9 40.1-21.7 56.3-38 16.3-16.3 29.1-35.2 38-56.3 9.2-21.9 13.9-45.1 13.9-69s-4.7-47.1-13.9-69c-8.9-21.1-21.7-40.1-38-56.3-16.3-16.3-35.2-29.1-56.3-38-21.8-9.2-45-13.9-69-13.9z" fill="#fff"/><path d="m150.7 445.6-9.2-8.7 5.8-6.2 25.2 23.8-5.8 6.2-9.2-8.7-22.9 24.2-6.7-6.3z" fill="#ffde17"/><path d="m172.2 505c-2.8-1.7-5-3.7-6.7-6-1.7-2.4-2.9-4.9-3.6-7.6s-.8-5.4-.4-8.2 1.4-5.5 2.9-8l.1-.1c1.5-2.6 3.5-4.7 5.8-6.3 2.3-1.7 4.8-2.8 7.5-3.5s5.5-.8 8.4-.3c2.9.4 5.8 1.5 8.5 3.2 2.8 1.7 5 3.7 6.7 6 1.7 2.4 2.9 4.9 3.6 7.6s.8 5.4.4 8.2-1.4 5.5-2.9 8l-.1.1c-1.5 2.6-3.5 4.7-5.8 6.3-2.3 1.7-4.8 2.8-7.5 3.5s-5.5.8-8.4.3-5.8-1.5-8.5-3.2zm4.4-7.2c1.6.9 3.2 1.5 4.9 1.8 1.7.2 3.3.1 4.8-.4 1.6-.5 3-1.2 4.3-2.2s2.5-2.3 3.4-3.8l.1-.1c.9-1.5 1.5-3.1 1.8-4.8s.3-3.3-.1-4.9-1-3.1-2-4.5-2.2-2.6-3.8-3.5c-1.6-1-3.2-1.6-4.9-1.8s-3.3-.1-4.8.4c-1.6.5-3 1.2-4.3 2.2s-2.5 2.3-3.4 3.8l-.1.1c-.9 1.5-1.5 3.1-1.8 4.8s-.3 3.3.1 4.9 1 3.1 2 4.5 2.2 2.6 3.8 3.5z" fill="#ffde17"/><path d="m214.9 482.3 9.5 2.6 1 29.6 16.4-25 7.6 2 1.7 29.9 15.7-25.1 9.3 2.5-24.7 36.9-7.7-2.1-2-28.8-16.2 24-7.7-2.1z" fill="#ffde17"/><path d="m280.5 497.7 8.5-.1 20 25.4-.4-25.7 9.1-.1.7 41.8-7.8.1-20.7-26.2.4 26.6-9.1.1z" fill="#ffde17"/><path d="m358.4 487.8 8-2.7 30.5 34-9.1 3.1-6.6-7.6-16.7 5.7-.6 10.1-8.9 3zm17 20.1-9.6-11-.9 14.6z" fill="#ffde17"/><path d="m387.8 476.6 27.3-16.3 4.2 7.1-19.4 11.6 4.6 7.7 17.1-10.2 4.2 7.1-17.1 10.2 8.3 13.9-7.9 4.7z" fill="#ffde17"/><path d="m463.2 474.8c-2.3 2.1-4.7 3.6-7.4 4.5s-5.4 1.3-8.1 1.2-5.3-.8-7.9-2-4.8-2.9-6.9-5.1l-.1-.1c-2-2.2-3.5-4.6-4.5-7.3-1-2.6-1.4-5.3-1.3-8.1.1-2.7.7-5.4 1.9-8.1 1.2-2.6 3-5 5.4-7.2 1.4-1.3 2.9-2.4 4.3-3.2s2.8-1.5 4.1-2 2.7-.8 4.1-.9c1.4-.2 2.7-.2 4.1-.1l.2 8.9c-2.2 0-4.2.3-6 .8s-3.5 1.5-5.1 2.9c-1.3 1.2-2.3 2.5-2.9 4s-1 3.1-1 4.7.3 3.2.9 4.8 1.5 3 2.7 4.3l.1.1c1.2 1.3 2.6 2.4 4.1 3.1 1.5.8 3.1 1.3 4.6 1.4 1.6.2 3.2 0 4.7-.5 1.6-.5 3-1.3 4.3-2.5 1.8-1.6 3-3.3 3.6-5 .6-1.8 1-3.7 1.2-6l8.3.4c0 1.6-.1 3.1-.4 4.5-.2 1.5-.6 2.9-1.2 4.3s-1.3 2.8-2.3 4.1c-.8 1.4-2 2.8-3.5 4.1z" fill="#ffde17"/><path d="m103.4 150.3 6.1-6.9 12.4 10.9 11.2-12.8-12.4-10.9 6.1-6.9 31.4 27.5-6.1 6.9-12.6-11-11.2 12.8 12.6 11-6.1 6.9z" fill="#ffde17"/><path d="m151.1 103 6.8-5 39.3 23.4-7.8 5.7-8.6-5.3-14.3 10.4 2.4 9.8-7.6 5.5zm22.3 14.1-12.5-7.7 3.5 14.2z" fill="#ffde17"/><path d="m185.1 81.2 17.5-7.7c4.8-2.1 9.1-2.5 12.9-1 3.1 1.2 5.5 3.7 7.1 7.3v.1c1.4 3.1 1.7 6 1.1 8.6-.7 2.6-2 4.9-4 6.9l15.3 9.6-9.8 4.3-13.6-8.6h-.1l-6.5 2.9 5.4 12.2-8.4 3.7zm25.1 11.1c2.1-.9 3.5-2.1 4.1-3.6.7-1.5.7-3-.1-4.7v-.1c-.8-1.8-2-2.9-3.5-3.3-1.6-.4-3.4-.1-5.5.8l-8.4 3.7 4.8 11z" fill="#ffde17"/><path d="m232.1 62.5 18.7-3.9c5.2-1.1 9.4-.5 12.8 1.7 2.8 1.9 4.6 4.7 5.4 8.6v.1c.7 3.3.4 6.2-.8 8.6s-3 4.4-5.4 5.9l13 12.5-10.5 2.2-11.4-11.2h-.1l-7 1.4 2.7 13.1-9 1.9zm22.2 16.2c2.2-.5 3.8-1.3 4.8-2.6s1.3-2.8.9-4.6v-.1c-.4-1.9-1.3-3.3-2.8-4-1.4-.7-3.3-.8-5.5-.4l-8.9 1.9 2.4 11.7z" fill="#ffde17"/><path d="m301.6 96.7c-3.2-.1-6.2-.7-8.9-1.9s-5-2.8-6.9-4.7c-1.9-2-3.4-4.3-4.5-6.9-1-2.6-1.5-5.4-1.5-8.4v-.1c.1-3 .7-5.8 1.8-8.4 1.2-2.6 2.8-4.8 4.8-6.8 2-1.9 4.4-3.4 7.1-4.5s5.7-1.6 9-1.5c3.2.1 6.2.7 8.9 1.9s5 2.8 6.9 4.7c1.9 2 3.4 4.3 4.5 6.9 1 2.6 1.5 5.4 1.5 8.4v.1c-.1 3-.7 5.8-1.8 8.4-1.2 2.6-2.8 4.8-4.8 6.8s-4.4 3.4-7.1 4.5c-2.8 1-5.8 1.5-9 1.5zm.3-8.5c1.8 0 3.5-.3 5.1-.9s2.9-1.6 4-2.7c1.1-1.2 2-2.5 2.6-4.1s1-3.2 1-5v-.1c0-1.8-.2-3.5-.8-5.1s-1.4-3-2.5-4.2-2.4-2.2-4-2.9c-1.5-.7-3.2-1.1-5.1-1.1s-3.6.3-5.1.9-2.9 1.6-4 2.7c-1.1 1.2-2 2.5-2.6 4.1s-1 3.2-1 5v.1c0 1.8.2 3.5.8 5.1s1.4 3 2.5 4.2 2.4 2.2 3.9 2.9c1.6.7 3.3 1.1 5.2 1.1z" fill="#ffde17"/><path d="m349.5 103.4c-3.2-.8-5.9-2.1-8.2-3.8s-4.2-3.7-5.6-6.1c-1.4-2.3-2.3-4.9-2.7-7.7s-.2-5.7.6-8.7v-.1c.7-2.9 2-5.5 3.7-7.7s3.8-4.1 6.1-5.5c2.4-1.4 5-2.3 7.9-2.8 2.9-.4 5.8-.2 8.9.5 1.8.5 3.4 1 4.8 1.7 1.4.6 2.7 1.3 3.9 2.1s2.2 1.7 3.1 2.7 1.8 2.1 2.6 3.2l-7.4 5.3c-.6-.9-1.2-1.6-1.9-2.3-.6-.7-1.3-1.3-2.1-1.9-.7-.6-1.6-1.1-2.5-1.5s-1.9-.8-3.1-1.1c-1.6-.4-3.2-.5-4.8-.2s-3 .9-4.4 1.8-2.5 2-3.5 3.4-1.7 2.9-2.2 4.7v.1c-.5 1.9-.6 3.6-.4 5.4.2 1.7.7 3.3 1.5 4.7s1.9 2.7 3.2 3.7 2.9 1.8 4.7 2.2c3.3.9 6.3.8 9-.3l1.5-5.8-9-2.3 2-7.7 17.6 4.5-4.5 17.6c-2.5 1.2-5.4 2.1-8.6 2.6-3 .5-6.5.3-10.2-.7z" fill="#ffde17"/><path d="m405.9 79.2 7.5 3.9-3.5 45.6-8.5-4.4.9-10.1-15.7-8.2-7.7 6.5-8.3-4.3zm-2.8 26.3 1.3-14.6-11.2 9.5z" fill="#ffde17"/><path d="m442.4 112.7-9.8-8.1 5.4-6.6 26.8 21.9-5.4 6.6-9.8-8.1-21.1 25.8-7.1-5.8z" fill="#ffde17"/><path d="m474.5 130.1 20.1 24.2-6.3 5.2-14.3-17.2-6.5 5.4 12.6 15.1-6.3 5.2-12.6-15.1-6.7 5.6 14.5 17.5-6.3 5.2-20.3-24.4z" fill="#ffde17"/><path d="m61.3 288.1-4.5 1.3-.9-3.6 6.8-2.2h3.1v25.4h-4.4v-20.9z" fill="#fff"/><path d="m80 309.4c-1.8 0-3.3-.3-4.5-.8-1.3-.6-2.5-1.3-3.5-2.2l2.4-3.4c1 .8 1.9 1.4 2.8 1.8s1.9.6 3 .6c.9 0 1.8-.2 2.5-.6s1.4-.9 1.9-1.6.9-1.6 1.2-2.5c.3-1 .5-2 .5-3.2-.6.8-1.4 1.4-2.4 1.9s-2.1.8-3.5.8c-1.3 0-2.6-.2-3.7-.6s-2-.9-2.8-1.6-1.4-1.5-1.8-2.5-.6-2.1-.6-3.3v-.2c0-1.2.2-2.4.7-3.4.5-1.1 1.1-2 1.9-2.8s1.8-1.4 3-1.8 2.4-.7 3.8-.7c1.6 0 2.9.2 4 .7 1.1.4 2.1 1.1 3 2s1.7 2.2 2.2 3.7c.6 1.5.8 3.5.8 6v.1c0 2-.2 3.9-.7 5.6s-1.2 3.1-2.1 4.3-2.1 2.1-3.4 2.8c-1.5.6-3.1.9-4.7.9zm.9-13c.8 0 1.5-.1 2.2-.4.6-.2 1.2-.6 1.6-1s.8-.9 1-1.4.3-1.1.3-1.7v-.1c0-1.3-.5-2.4-1.4-3.3-1-.9-2.2-1.3-3.9-1.3-.8 0-1.5.1-2.1.4-.6.2-1.1.6-1.6 1-.4.4-.8.9-1 1.5s-.3 1.2-.3 1.8v.1c0 1.3.5 2.4 1.4 3.2s2.2 1.2 3.8 1.2z" fill="#fff"/><path d="m508.2 288.1-4.5 1.3-.9-3.6 6.8-2.2h3.1v25.4h-4.4v-20.9z" fill="#fff"/><path d="m526.8 309.4c-1.8 0-3.3-.3-4.5-.8-1.3-.6-2.5-1.3-3.5-2.2l2.4-3.4c1 .8 1.9 1.4 2.8 1.8s1.9.6 3 .6c.9 0 1.8-.2 2.5-.6s1.4-.9 1.9-1.6.9-1.6 1.2-2.5c.3-1 .5-2 .5-3.2-.6.8-1.4 1.4-2.4 1.9s-2.1.8-3.5.8c-1.3 0-2.6-.2-3.7-.6s-2-.9-2.8-1.6-1.4-1.5-1.8-2.5-.6-2.1-.6-3.3v-.2c0-1.2.2-2.4.7-3.4.5-1.1 1.1-2 1.9-2.8s1.8-1.4 3-1.8 2.4-.7 3.8-.7c1.6 0 2.9.2 4 .7 1.1.4 2.1 1.1 3 2s1.7 2.2 2.2 3.7c.6 1.5.8 3.5.8 6v.1c0 2-.2 3.9-.7 5.6s-1.2 3.1-2.1 4.3-2.1 2.1-3.4 2.8c-1.5.6-3 .9-4.7.9zm1-13c.8 0 1.5-.1 2.2-.4.6-.2 1.2-.6 1.6-1s.8-.9 1-1.4.3-1.1.3-1.7v-.1c0-1.3-.5-2.4-1.4-3.3-1-.9-2.2-1.3-3.9-1.3-.8 0-1.5.1-2.1.4-.6.2-1.1.6-1.6 1-.4.4-.8.9-1 1.5s-.3 1.2-.3 1.8v.1c0 1.3.5 2.4 1.4 3.2s2.2 1.2 3.8 1.2z" fill="#fff"/><g clip-rule="evenodd" fill-rule="evenodd"><path d="m346.1 155.1 1.2.6 9.9 4.8 48.2 23.4 8.5 4.1v125.6c0 43.4-9.6 80.6-48.2 105.3l-28.6 18.3v-26.3l6.2-4 .2-.1 10.3-6.6c12-7.7 20.4-16.9 26.1-27.3.6-1 1.1-1.9 1.6-2.9.6-1.2 1.2-2.4 1.8-3.6l.1-.2c.2-.4.4-.9.6-1.3l.1-.1c.3-.8.6-1.5.9-2.3l.3-.8.3-.7.1-.3c.2-.5.3-.9.5-1.4.2-.5.3-1 .5-1.5l.1-.3c.2-.8.5-1.6.7-2.3l.2-.8.2-.8v-.1c.3-1 .5-2.1.8-3.2l.1-.4.3-1.3.1-.5.1-.7v-.1l.2-.9v-.1l.1-.6.1-.7.2-1.2.1-.4.2-1.1.1-.8.2-1.4v-.3l.1-.9.1-1v-.1l.1-.8v-.1l.1-1 .1-.9v-.1l.1-1v-.4l.1-1.1v-.3-.2l.1-1.6v-.2l.1-1.7v-.4l.1-1.5v-.2-.3-1.3-.4-.4-1.3-.3-.2-1.1-.7c0-1.3 0-2.6.1-4v-.2-1-1.2-112l-34.6-16.8-11.1-5.4-20.8-10.1v98.2 177.1c-1.8 1.2-3.8 2.5-5.9 3.9l-16 10.2v-204.8-119.9z" fill="#fff"/><path d="m313.9 272.8h63.4v35.1h-63.4z" fill="#ffde17" transform="matrix(-1 0 0 -1 691.1706 580.5806)"/><path d="m358.5 198.1v24.6 91c0 30.2-2.7 42.6-21.4 57.1v27l.2-.1c36.1-23.1 43.3-40.3 43.3-84v-104.8z" fill="#ffde17"/><path d="m249.2 155.1-1.2.6-9.9 4.8-48.2 23.4-8.5 4.1v125.6c0 43.4 9.6 80.6 48.2 105.3l28.6 18.3v-26.3l-6.2-4-.2-.1-10.3-6.6c-12-7.7-20.4-16.9-26.1-27.3-.6-1-1.1-1.9-1.6-2.9-.6-1.2-1.2-2.4-1.8-3.6l-.1-.2c-.2-.4-.4-.9-.6-1.3l-.1-.1c-.3-.8-.6-1.5-.9-2.3l-.3-.8-.3-.7-.1-.3c-.2-.5-.3-.9-.5-1.4-.2-.5-.3-1-.5-1.5l-.1-.3c-.2-.8-.5-1.6-.7-2.3l-.2-.8-.2-.8v-.1c-.3-1-.5-2.1-.8-3.2l-.1-.4-.3-1.3-.1-.5-.1-.7v-.1l-.2-.9v-.1l-.1-.6-.1-.7-.2-1.2-.1-.4-.2-1.1-.1-.8-.2-1.4v-.3l-.1-.9-.1-1v-.1l-.1-.8v-.1l-.1-1-.1-.9v-.1l-.1-1v-.4l-.1-1.1v-.3-.2l-.1-1.6v-.2l-.1-1.7v-.4l-.1-1.5v-.2-.3-1.3-.4-.4-1.3-.3-.2-1.1-.7c0-1.3 0-2.6-.1-4v-.2-1-1.2-112l34.6-16.8 11.1-5.4 20.8-10.1v98.2 177.1c1.8 1.2 3.8 2.5 5.9 3.9l16.2 10.3v-204.9-119.9z" fill="#fff"/><path d="m218 272.8h63.4v35.1h-63.4z" fill="#ffde17"/><path d="m236.8 313.7v-91-24.6l-22.1 10.8v104.8c0 43.7 7.2 60.8 43.3 84l.2.1v-27c-18.7-14.5-21.4-26.9-21.4-57.1z" fill="#ffde17"/><path d="m316.8 286.8c.7.1 1.5 0 2 0h.8c.1.1 0 .2-.3.4-.2.2-.7.5-1.1.8s-.8.7-1.3 1.3c-.5.7-.9 1.6-1.2 2.1-.2.5-.2.5-.1.7.1.3.4.8.7 1.5s.7 1.6 1 2.4.5 1.6.5 2.5-.2 1.8-.6 2.6-.9 1.4-1.4 1.9c-.5.6-1.1 1.2-1.6 1.6-.6.4-1.1.6-1.7.7-.6.2-1.1.4-1.4.5s-.3.1-.3.2 0 .3-.1.8-.2 1.3-.2 2 0 1.3.2 1.9c.2.5.4 1 .5 1.2s.1.2 0 .3-.2.2-.3.3-.3.1-.6-.1-.7-.5-1-.8-.5-.6-.7-.8c-.1-.2-.1-.2-.4-.1-.3 0-.9.1-1.6.2-.6 0-1.2 0-1.5 0s-.3 0-.3.1c0 .2-.1.5-.4.9-.2.4-.7.9-1.2 1.4s-1.2 1.1-1.8 1.4c-.5.3-.9.5-1.6.6s-1.6.3-2.4.3c-.9 0-1.7-.1-2.5-.4s-1.7-.8-2.3-1.2c-.6-.5-1-.9-1.5-1.3-.5-.5-1-1-1.5-1.3s-.8-.3-1.3-.2-1.1.3-1.6.5-.9.4-1.2.7-.6.6-.8.8-.3.2-.5.2c-.1 0-.3 0-.4-.1s-.2-.2-.3-.2c-.1-.1-.1-.2 0-.3.1-.2.2-.4.4-.7s.3-.7.3-1.1 0-.7 0-1.2 0-1.2 0-1.6c0-.5-.1-.7-.2-.9s-.2-.2-.5-.3-.7-.2-1.2-.3-.9-.3-1.4-.6-1-.6-1.5-1.1-1.1-1-1.6-1.6c-.4-.7-.7-1.4-.9-2.2s-.2-1.6-.2-2.5.2-1.8.5-2.6c.4-.8.9-1.6 1.3-2.1.3-.5.4-.9.5-1.2 0-.4 0-.8-.1-1.2-.2-.5-.5-.9-1.2-1.5s-1.6-1.3-2.1-1.6c-.5-.4-.5-.5-.4-.5.1-.1.2-.1 1.2-.3s2.8-.6 3.8-.8c.9-.2.9-.2 1-.7s.3-1.5.6-2.3c.2-.9.5-1.6.7-2.3s.5-1.3.8-2c.4-.7.9-1.3 1.6-1.8.6-.5 1.4-.9 2.1-1.1s1.4-.3 2.2-.3c.7 0 1.5 0 2.3.2.8.1 1.7.4 2.1.5s.4.1.8-.3c.4-.5 1.2-1.4 1.6-1.9s.5-.7.5-.8 0-.3.1-.7.3-1 .4-1.3.2-.3.3-.2.3.4.4.7.2.6.3.9c.2.3.5.7 1.1 1.3s1.5 1.5 2 1.9.5.4.6.4.3-.1.9-.2 1.5-.4 2.5-.4c1-.1 2 0 2.9.3s1.5.7 2.3 1.4c.7.7 1.5 1.6 1.9 2.4.4.9.5 1.7.6 2.5.1.9.1 1.8.2 2.3 0 .5.1.6.4.7s.8.2 1.3.5c.8-.2 1.4.1 2.1.2zm1.1 32.7c1.1-.7 2.5-1.4 3.8-1.9 1.4-.6 2.7-1.1 3.9-1.6s2.2-1 2.9-1.6 1.2-1.2 1.6-1.9c.3-.7.5-1.5.4-2.1 0-.7-.3-1.2-.6-1.9s-.8-1.6-1.3-2.3-1.1-1.3-1.8-1.7-1.4-.7-1.9-1c-.6-.3-1-.7-1.1-1-.2-.2-.1-.3.2-.3s1 0 1.7.1c.7 0 1.5.1 2.8-.1 1.2-.2 2.9-.7 4-1.2s1.6-1 2-1.6.5-1.4.7-2.1c.1-.7.2-1.3 0-1.8-.1-.6-.5-1.1-1-1.9-.6-.8-1.4-1.9-2.1-2.9s-1.4-2-1.9-3.3c-.6-1.3-1.1-2.9-1.4-4.4-.4-1.6-.6-3.1-.7-4.6s-.2-3-.2-4.1-.1-2-.3-2.8-.7-1.7-1.4-2.3c-.7-.7-1.6-1.1-2.4-1.3s-1.5-.1-2.4.1-1.8.5-2.7.9-1.6 1-2 1.5c-.5.5-.6.8-.8 1s-.4.3-.6.3-.4 0-.5-.1-.2-.3-.1-.8c.2-.5.6-1.1.9-1.7.3-.5.5-.9.6-1.7.1-.7.1-1.8 0-2.7-.1-1-.3-1.9-.6-2.7-.4-.9-.9-1.7-1.5-2.2s-1.2-.7-2-.8-1.7 0-2.5.2c-.7.2-1.3.6-1.9.9s-1.4.5-2.1.7c-.8.2-1.6.4-2.7.6s-2.5.2-3.6.3c-1.2 0-2.2 0-3.3-.1s-2.3-.2-3.5-.3-2.4-.3-3.4-.6-1.7-.8-2.5-.9c-.8-.2-1.6-.1-2.5.1-.8.2-1.6.6-2.2 1s-1.1.9-1.4 1.5c-.3.7-.4 1.6-.4 2.5 0 1 .1 2 .2 2.9s.2 1.5.6 2.2c.3.7.8 1.4 1 1.8.2.5.2.7.1.9s-.2.4-.3.5-.2.1-.7-.4-1.4-1.4-2.1-2c-.8-.7-1.4-1.1-2.3-1.5-.9-.3-2-.6-3-.6s-1.9.1-2.6.4-1.3.8-1.6 1.3c-.4.5-.6.9-.8 1.5s-.3 1.4-.4 2.5-.1 2.5-.2 3.8c-.2 1.3-.5 2.4-.7 3.7s-.5 2.7-.8 3.9-.8 2.3-1.2 3.2c-.5.9-.9 1.8-1.3 2.5s-.6 1.2-1.1 1.7c-.4.5-1 .9-1.4 1.5-.4.5-.7 1.2-.9 1.8-.2.7-.2 1.4-.2 2.1s.2 1.2.6 1.8 1 1.1 1.7 1.6 1.4.8 2.2 1.1 1.7.6 2.6.7 1.8.1 2.4 0h1.3c.3 0 .5.1.5.2.1.1 0 .2-.5.7-.5.4-1.4 1.1-2.2 1.6-.7.5-1.2.8-1.6 1.2s-.8.9-1.1 1.5c-.3.5-.7 1-.8 1.6-.2.6-.2 1.3 0 2.1.1.7.4 1.4 1 2.1.6.6 1.5 1.1 2.4 1.4s1.7.5 2.8.9 2.4 1 3.4 1.5c1.1.6 1.9 1.1 2.7 1.7s1.7 1.3 2.5 2 1.4 1.4 2.1 2.1 1.4 1.6 2.1 2.4c.8.9 1.6 1.8 2.3 2.5.7.8 1.3 1.4 1.9 1.8s1.2.6 2.1.5c.8-.1 1.8-.5 2.7-1.2s1.7-1.6 2.3-2.5.9-1.9 1.2-2.6c.2-.7.4-1.1.5-1.4.2-.3.3-.5.5-.5s.4 0 .5.4c.1.3.2.9.5 1.5.3.7.8 1.5 1.4 2.3s1.3 1.7 2.1 2.3c.7.6 1.4 1 2.1 1.1s1.2 0 1.9-.1c.6-.2 1.3-.4 1.8-.8s.9-.9 1.3-1.4c.3-.5.5-.9 1-1.5.4-.7 1.1-1.6 1.9-2.5s1.8-1.8 2.8-2.6c.5-1.2 1.5-1.9 2.6-2.6z" fill="#fff"/><path d="m295.6 256.3c1.2.1 2.5.3 3.7.3 1.3 0 2.5-.1 3.6-.2 1-.2 1.8-.4 2.6-.7.7-.3 1.4-.7 2.1-.9.6-.3 1.3-.4 2-.4s1.5 0 2.1.1 1 .3 1.4.5.7.5 1.2.7c.4.3.9.5 1.2.8s.5.7.7 1.1.4 1 .5 1.6.1 1.2.1 1.7.1.8.1 1.4v1.9c0 .7-.1 1.5-.1 1.9s0 .4.1.3l.6-.4c.2-.2.5-.4.7-.7.2-.4.3-.9.6-1.5s.7-1.1.9-1.8.2-1.4.1-2.2c-.1-.7-.2-1.4-.4-2.2s-.6-1.6-1-2.4-.9-1.6-1.4-2.3-1.1-1.4-2.1-1.9c-.9-.5-2.2-1-3.6-1.4s-2.8-.8-4-1.1c-1.2-.2-2.1-.3-3-.4-.8-.1-1.5-.3-2.6-.4s-2.7-.1-4.4 0c-1.7 0-3.6.1-5.3.3-1.8.2-3.5.5-5 .9-1.6.4-3.1.8-4.3 1.3-1.3.5-2.3 1-3.1 1.5s-1.4 1.1-1.9 1.7c-.5.7-.9 1.4-1.2 2.1s-.4 1.3-.6 2c-.1.7-.3 1.5-.4 2.2s-.1 1.3.1 1.9c.2.7.5 1.4 1 2.3s1.2 2 1.6 2.4c.4.5.5.4.5.2.1-.1.1-.3.1-.7s0-1 0-1.6c-.1-.6-.2-1.1-.2-1.8s0-1.7.1-2.5.4-1.6.6-2.1c.2-.6.5-1 1-1.5s1.3-1 2-1.3 1.3-.4 1.9-.5c.6 0 1.1 0 1.7.1s1.3.3 2.4.6c1 .2 2.4.5 3.7.7 1.1.2 2.4.3 3.6.4z" fill="#fff"/><path d="m263.6 273.7c.1-1.1.1-1.8.2-2.4s.2-1.2.4-1.7.5-1.1 1-1.7 1.3-1.2 1.9-1.5c.6-.4 1.1-.5 1.7-.6s1.4-.1 2.3 0c.8.1 1.8.3 2.5.6.7.2 1.2.5 1.7.7s1.1.4 1.5.5.5.1.7.1.3-.1-.1-.6c-.3-.5-1.2-1.5-1.9-2.2-.7-.8-1.4-1.3-2-1.6s-1.2-.5-1.8-.6c-.7-.1-1.5-.2-2.2-.3s-1.4-.1-2.1 0-1.6.2-2.4.5-1.5.7-2.3 1.3-1.5 1.5-2.4 2.6c-.8 1.1-1.7 2.4-2.5 3.8s-1.6 3-2.4 4.6c-.7 1.6-1.4 3.4-1.9 5-.6 1.6-1 3.2-1.3 4.3s-.3 1.8-.4 2.6-.3 1.8-.5 3c-.1 1.2-.2 2.7-.2 4.1s0 2.8.3 3.8c.2 1.1.7 1.8 1.2 2.5s1.2 1.4 1.8 2.1c.7.6 1.4 1.2 2 1.6.7.4 1.3.8 2 1 .7.3 1.4.5 2.1.5s1.4-.3 2-.4 1.2-.1 1.6-.2.7-.3.9-.5l.6-.4c.1-.1.1-.1-.3-.2s-1.1-.3-1.8-.4c-.7-.2-1.4-.4-1.9-.5-.5-.2-.8-.3-1.3-.5s-1.1-.3-1.6-.6-1-.6-1.4-.9-.7-.6-.8-1c-.2-.4-.3-1-.4-1.4-.1-.5-.3-.9-.3-1.3-.1-.4-.2-.9-.1-1.5s.2-1.4.5-2c.3-.7.6-1.2 1-1.8s1-1.1 1.5-1.7.9-1.3 1.4-2.3.9-2.1 1.3-3.4c.4-1.2.6-2.4.8-3.7.3-1.2.6-2.4.8-3.7.4-1.1.5-2.5.6-3.6z" fill="#fff"/><path d="m320.7 322.6c-1 .8-1.9 1.6-2.8 2.5-.9.8-1.9 1.6-2.8 2.6-.9.9-1.8 2-2.5 2.8s-1.1 1.4-1.6 1.9c-.4.5-.8.8-1.3 1.1s-1 .6-1.8.7c-.7.2-1.7.2-2.4.1s-1.1-.2-1.7-.6c-.5-.3-1.2-.8-1.8-1.4s-1.2-1.3-1.6-1.9-.6-1.1-.9-1.6-.7-1-.9-1.3-.4-.4-.5-.5-.3-.1-.3.5.1 1.9.2 2.9.3 1.8.6 2.5c.3.6.6 1.1 1.1 1.6s1.1 1 1.6 1.5 1 .9 1.7 1.3c.6.4 1.4.7 2.2 1 .8.2 1.6.3 2.6.2s2.1-.3 3.4-.7 2.7-.9 4.2-1.6 3-1.4 4.6-2.3c1.5-.9 3.1-1.9 4.5-2.9s2.7-1.9 3.5-2.7c.9-.7 1.3-1.3 1.9-1.9s1.3-1.2 2.1-2.1 1.7-2.1 2.5-3.2 1.6-2.3 2-3.3.5-1.8.5-2.7-.1-1.8-.2-2.7c-.2-.9-.4-1.8-.7-2.5s-.6-1.4-1-2-.8-1.3-1.4-1.7-1.2-.6-1.8-.9-1-.6-1.4-.8-.7-.2-1-.2h-.7c-.1 0-.1 0 .1.3s.7.9 1.2 1.4c.5.6.9 1.1 1.1 1.5.3.4.5.7.7 1.1.3.4.6.9.9 1.4s.5 1.1.6 1.5c.1.5.2.9.1 1.3-.1.5-.3.9-.5 1.4s-.3.9-.5 1.3-.4.8-.8 1.3-1 .9-1.6 1.3-1.2.7-1.8.8c-.7.2-1.4.3-2.2.5s-1.5.5-2.5 1c-.8.8-1.9 1.4-2.9 2.2z" fill="#fff"/><path d="m334 283.8c.5 1.1 1 2.3 1.5 3.4.6 1.1 1.3 2.3 1.8 3.2.6.9 1 1.5 1.3 2s.5 1 .7 1.6c.1.5.2 1.1.1 1.9-.1.7-.4 1.6-.6 2.3-.3.6-.6 1-1.1 1.4s-1.1.8-1.9 1.2-1.6.7-2.3.9-1.2.2-1.8.4c-.6.1-1.1.3-1.5.4s-.5.2-.6.3-.2.2.4.4 1.8.5 2.8.7 1.9.3 2.5.2c.7-.1 1.2-.2 1.8-.5s1.3-.7 1.9-1c.6-.4 1.2-.7 1.7-1.1.6-.5 1.2-1.1 1.6-1.7.5-.7.8-1.4 1.1-2.3s.4-2 .5-3.4c.1-1.3 0-2.8-.1-4.4s-.4-3.3-.7-5c-.4-1.7-.8-3.5-1.3-5.1s-1-3.1-1.4-4.1-.8-1.6-1.2-2.3-.7-1.6-1.3-2.6-1.4-2.2-2.2-3.4c-.8-1.1-1.6-2.2-2.4-2.9s-1.6-1.1-2.4-1.4c-.9-.3-1.8-.5-2.7-.6s-1.8-.2-2.6-.2-1.5.1-2.2.3-1.5.4-2 .8c-.6.4-1 1-1.4 1.4s-.9.7-1.2 1-.4.6-.5.9l-.2.6c0 .1 0 .1.3 0 .4-.1 1.1-.4 1.8-.7.7-.2 1.3-.4 1.8-.6.5-.1.9-.2 1.3-.3.5-.1 1.1-.3 1.6-.4.6-.1 1.1-.1 1.6 0 .5 0 .9.1 1.3.4.4.2.8.6 1.2.9s.7.6 1 .9.6.6.9 1.2c.3.5.6 1.2.8 1.9s.2 1.3.2 2-.2 1.4-.3 2.2 0 1.6.2 2.6.5 2.2.9 3.4c.3 1 .8 2.1 1.3 3.2z" fill="#fff"/><path d="m271.2 322.3c-1.2-.5-2.4-1-3.4-1.4s-1.7-.6-2.2-.8c-.6-.2-1-.5-1.5-.8-.4-.3-.9-.7-1.3-1.4-.4-.6-.8-1.5-.9-2.2-.2-.7-.2-1.2-.1-1.8s.3-1.4.6-2.1c.3-.8.8-1.6 1.2-2.1.4-.6.8-1 1.2-1.4s.7-.9.9-1.3c.2-.3.2-.5.2-.6s0-.3-.6-.1-1.7.7-2.6 1.2-1.6.9-2.1 1.4-.8 1-1.1 1.6-.6 1.3-.8 2c-.3.7-.5 1.3-.6 2s-.2 1.6-.2 2.4c.1.8.2 1.6.6 2.5s1 1.9 1.7 2.9c.8 1.1 1.8 2.2 2.9 3.4s2.3 2.3 3.6 3.5c1.3 1.1 2.8 2.2 4.2 3.2s2.7 1.8 3.6 2.4c1 .5 1.6.8 2.3 1.1s1.5.8 2.6 1.3 2.5.9 3.8 1.3 2.6.7 3.7.8c1 .1 1.9-.1 2.7-.5.8-.3 1.7-.7 2.4-1.2.8-.5 1.5-1 2.1-1.5s1.1-1 1.5-1.6.9-1.2 1.1-1.9.1-1.4.2-2 .2-1.2.3-1.6c0-.4-.1-.7-.2-1l-.2-.7c0-.1 0-.1-.2.2s-.6 1-.9 1.6c-.4.6-.7 1.2-1 1.6s-.5.7-.8 1.1-.6.9-1 1.3-.8.8-1.2 1c-.4.3-.7.4-1.2.5-.4.1-1 0-1.4 0-.5 0-.9 0-1.3 0s-.9-.1-1.4-.3-1.2-.6-1.7-1-1-.9-1.4-1.4c-.4-.6-.7-1.3-1.2-1.9-.4-.6-1-1.3-1.7-1.9-.8-.7-1.7-1.5-2.8-2.1-1-.7-2.1-1.2-3.2-1.8-1-.8-2.1-1.4-3.2-1.9z" fill="#fff"/><path d="m291.9 247.9c1.8-.2 3.6-.3 5.3-.3h4.4c1.1.1 1.8.2 2.6.4.8.1 1.8.2 3 .4s2.6.6 4 1.1c1.4.4 2.6.9 3.6 1.4.9.5 1.5 1.2 2.1 1.9.5.7 1 1.5 1.4 2.3s.7 1.6 1 2.4c.2.8.4 1.5.4 2.2.1.7.1 1.5-.1 2.2s-.6 1.2-.9 1.8-.4 1.1-.6 1.5-.5.6-.7.7l-.6.4c-.1.1-.1.1-.1-.3s.1-1.1.1-1.9c0-.7 0-1.4 0-1.9s-.1-.9-.1-1.4 0-1.1-.1-1.7-.3-1.1-.5-1.6c-.2-.4-.4-.8-.7-1.1s-.8-.6-1.2-.8c-.4-.3-.8-.5-1.2-.7s-.8-.4-1.4-.5-1.4-.2-2.1-.1c-.7 0-1.3.2-2 .4-.6.3-1.3.6-2.1.9-.7.3-1.5.5-2.6.7-1 .2-2.3.3-3.6.2-1.3 0-2.5-.2-3.7-.3s-2.5-.2-3.8-.4-2.6-.5-3.7-.7c-1-.2-1.7-.4-2.4-.6-.6-.1-1.2-.2-1.7-.1-.6 0-1.2.1-1.9.5-.7.3-1.5.9-2 1.3-.5.5-.8.9-1 1.5s-.5 1.3-.6 2.1-.2 1.8-.1 2.5c0 .7.2 1.3.2 1.8.1.6.1 1.2 0 1.6 0 .4-.1.5-.1.7-.1.1-.1.3-.5-.2s-1.1-1.5-1.6-2.4-.9-1.7-1-2.3c-.2-.7-.1-1.2-.1-1.9.1-.7.2-1.5.4-2.2.1-.7.3-1.3.6-2s.7-1.4 1.2-2.1 1.1-1.2 1.9-1.7 1.9-1 3.1-1.5c1.3-.5 2.7-.9 4.3-1.3 1.7-.3 3.4-.7 5.2-.9zm-3.2 12.5c-1-.3-1.7-.8-2.5-.9-.8-.2-1.6-.1-2.5.1-.8.2-1.6.6-2.2 1s-1.1.9-1.4 1.5c-.3.7-.4 1.6-.4 2.5 0 1 .1 2 .2 2.9s.2 1.5.6 2.2c.3.7.8 1.4 1 1.8.2.5.2.7.1.9s-.2.4-.3.5-.2.1-.7-.4-1.4-1.4-2.1-2c-.8-.7-1.4-1.1-2.3-1.5-.9-.3-2-.6-3-.6s-1.9.1-2.6.4-1.3.8-1.6 1.3c-.4.5-.6.9-.8 1.5s-.3 1.4-.4 2.5-.1 2.5-.2 3.8c-.2 1.3-.5 2.4-.7 3.7s-.5 2.7-.8 3.9-.8 2.3-1.2 3.2c-.5.9-.9 1.8-1.3 2.5s-.6 1.2-1.1 1.7c-.4.5-1 .9-1.4 1.5-.4.5-.7 1.2-.9 1.8-.2.7-.2 1.4-.2 2.1s.2 1.2.6 1.8 1 1.1 1.7 1.6 1.4.8 2.2 1.1 1.7.6 2.6.7 1.8.1 2.4 0h1.3c.3 0 .5.1.5.2.1.1 0 .2-.5.7-.5.4-1.4 1.1-2.2 1.6-.7.5-1.2.8-1.6 1.2s-.8.9-1.1 1.5c-.3.5-.7 1-.8 1.6-.2.6-.2 1.3 0 2.1.1.7.4 1.4 1 2.1.6.6 1.5 1.1 2.4 1.4s1.7.5 2.8.9 2.4 1 3.4 1.5c1.1.6 1.9 1.1 2.7 1.7s1.7 1.3 2.5 2 1.4 1.4 2.1 2.1 1.4 1.6 2.1 2.4c.8.9 1.6 1.8 2.3 2.5.7.8 1.3 1.4 1.9 1.8s1.2.6 2.1.5c.8-.1 1.8-.5 2.7-1.2s1.7-1.6 2.3-2.5.9-1.9 1.2-2.6c.2-.7.4-1.1.5-1.4.2-.3.3-.5.5-.5s.4 0 .5.4c.1.3.2.9.5 1.5.3.7.8 1.5 1.4 2.3s1.3 1.7 2.1 2.3c.7.6 1.4 1 2.1 1.1s1.2 0 1.9-.1c.6-.2 1.3-.4 1.8-.8s.9-.9 1.3-1.4c.3-.5.5-.9 1-1.5.4-.7 1.1-1.6 1.9-2.5s1.8-1.8 2.8-2.6 2-1.5 3.1-2.1c1.1-.7 2.5-1.4 3.8-1.9 1.4-.6 2.7-1.1 3.9-1.6s2.2-1 2.9-1.6 1.2-1.2 1.6-1.9c.3-.7.5-1.5.4-2.1 0-.7-.3-1.2-.6-1.9s-.8-1.6-1.3-2.3-1.1-1.3-1.8-1.7-1.4-.7-1.9-1c-.6-.3-1-.7-1.1-1-.2-.2-.1-.3.2-.3s1 0 1.7.1c.7 0 1.5.1 2.8-.1 1.2-.2 2.9-.7 4-1.2s1.6-1 2-1.6.5-1.4.7-2.1c.1-.7.2-1.3 0-1.8-.1-.6-.5-1.1-1-1.9-.6-.8-1.4-1.9-2.1-2.9s-1.4-2-1.9-3.3c-.6-1.3-1.1-2.9-1.4-4.4-.4-1.6-.6-3.1-.7-4.6s-.2-3-.2-4.1-.1-2-.3-2.8-.7-1.7-1.4-2.3c-.7-.7-1.6-1.1-2.4-1.3s-1.5-.1-2.4.1-1.8.5-2.7.9-1.6 1-2 1.5c-.5.5-.6.8-.8 1s-.4.3-.6.3-.4 0-.5-.1-.2-.3-.1-.8c.2-.5.6-1.1.9-1.7.3-.5.5-.9.6-1.7.1-.7.1-1.8 0-2.7-.1-1-.3-1.9-.6-2.7-.4-.9-.9-1.7-1.5-2.2s-1.2-.7-2-.8-1.7 0-2.5.2c-.7.2-1.3.6-1.9.9s-1.4.5-2.1.7c-.8.2-1.6.4-2.7.6s-2.5.2-3.6.3c-1.2 0-2.2 0-3.3-.1s-2.3-.2-3.5-.3c-1.7-.6-2.9-.7-3.9-1.1zm-20.9 60.5c1 .4 2.2.8 3.4 1.4 1.2.5 2.2 1.2 3.3 1.7 1.1.6 2.2 1.1 3.2 1.8s2 1.4 2.8 2.1 1.3 1.3 1.7 1.9.8 1.3 1.2 1.9.8 1 1.4 1.4c.5.4 1.2.8 1.7 1s1 .3 1.4.3.8 0 1.3 0 1 .1 1.4 0 .8-.2 1.2-.5.8-.6 1.2-1 .7-.9 1-1.3.5-.7.8-1.1.7-1 1-1.6c.4-.6.7-1.3.9-1.6s.2-.3.2-.2l.2.7c.1.3.2.6.2 1s-.2 1-.3 1.6 0 1.3-.2 2-.6 1.3-1.1 1.9c-.4.6-.9 1.1-1.5 1.6s-1.3 1-2.1 1.5-1.6.9-2.4 1.2-1.6.5-2.7.5c-1-.1-2.3-.4-3.7-.8-1.3-.4-2.7-.8-3.8-1.3-1.1-.4-1.9-.9-2.6-1.3-.7-.3-1.4-.6-2.3-1.1-1-.5-2.3-1.4-3.6-2.4-1.4-1-2.8-2-4.2-3.2-1.3-1.1-2.5-2.3-3.6-3.5s-2.1-2.3-2.9-3.4-1.4-2-1.7-2.9c-.4-.9-.6-1.7-.6-2.5-.1-.8 0-1.7.2-2.4.1-.7.3-1.3.6-2s.5-1.4.8-2 .6-1.1 1.1-1.6 1.2-.9 2.1-1.4 2-1 2.6-1.2.6 0 .6.1-.1.3-.2.6c-.2.3-.5.8-.9 1.3-.4.4-.7.8-1.2 1.4-.4.6-.9 1.4-1.2 2.1-.3.8-.5 1.5-.6 2.1s-.1 1.1.1 1.8.5 1.5.9 2.2c.4.6.8 1.1 1.3 1.4.4.3.9.6 1.5.8.4.4 1.1.6 2.1 1zm5.7-57.7c-.6-.3-1.2-.5-1.8-.6-.7-.1-1.5-.2-2.2-.3s-1.4-.1-2.1 0-1.6.2-2.4.5-1.5.7-2.3 1.3-1.5 1.5-2.4 2.6c-.8 1.1-1.7 2.4-2.5 3.8s-1.6 3-2.4 4.6c-.7 1.6-1.4 3.4-1.9 5-.6 1.6-1 3.2-1.3 4.3s-.3 1.8-.4 2.6-.3 1.8-.5 3c-.1 1.2-.2 2.7-.2 4.1s0 2.8.3 3.8c.2 1.1.7 1.8 1.2 2.5s1.2 1.4 1.8 2.1c.7.6 1.4 1.2 2 1.6.7.4 1.3.8 2 1 .7.3 1.4.5 2.1.5s1.4-.3 2-.4 1.2-.1 1.6-.2.7-.3.9-.5l.6-.4c.1-.1.1-.1-.3-.2s-1.1-.3-1.8-.4c-.7-.2-1.4-.4-1.9-.5-.5-.2-.8-.3-1.3-.5s-1.1-.3-1.6-.6-1-.6-1.4-.9-.7-.6-.8-1c-.2-.4-.3-1-.4-1.4-.1-.5-.3-.9-.3-1.3-.1-.4-.2-.9-.1-1.5s.2-1.4.5-2c.3-.7.6-1.2 1-1.8s1-1.1 1.5-1.7.9-1.3 1.4-2.3.9-2.1 1.3-3.4c.4-1.2.6-2.4.8-3.7.3-1.2.6-2.4.8-3.7s.3-2.7.4-3.7c.1-1.1.1-1.8.2-2.4s.2-1.2.4-1.7.5-1.1 1-1.7 1.3-1.2 1.9-1.5c.6-.4 1.1-.5 1.7-.6s1.4-.1 2.3 0c.8.1 1.8.3 2.5.6.7.2 1.2.5 1.7.7s1.1.4 1.5.5.5.1.7.1.3-.1-.1-.6c-.3-.5-1.2-1.5-1.9-2.2-.6-.6-1.2-1.1-1.8-1.5zm39.1 67.2c.7-.8 1.6-1.8 2.5-2.8.9-.9 1.9-1.7 2.8-2.6.9-.8 1.8-1.7 2.8-2.5s2.1-1.4 3-1.9 1.7-.8 2.5-1 1.5-.3 2.2-.5 1.3-.5 1.8-.8c.6-.4 1.2-.9 1.6-1.3.4-.5.6-.9.8-1.3s.3-.8.5-1.3.4-.9.5-1.4 0-.9-.1-1.3c-.1-.5-.3-1-.6-1.5s-.6-1-.9-1.4-.5-.7-.7-1.1c-.3-.4-.7-1-1.1-1.5-.5-.6-.9-1.1-1.2-1.4-.2-.3-.2-.3-.1-.3h.7c.3 0 .6 0 1 .2s.8.5 1.4.8 1.2.5 1.8.9 1 1 1.4 1.7c.4.6.7 1.3 1 2s.5 1.6.7 2.5.2 1.8.2 2.7-.1 1.8-.5 2.7c-.4 1-1.2 2.1-2 3.3-.8 1.1-1.7 2.3-2.5 3.2s-1.5 1.5-2.1 2.1-1 1.1-1.9 1.9c-.9.7-2.1 1.7-3.5 2.7s-2.9 2-4.5 2.9c-1.5.9-3.1 1.7-4.6 2.3-1.5.7-2.9 1.2-4.2 1.6s-2.4.6-3.4.7-1.8 0-2.6-.2-1.6-.6-2.2-1-1.1-.8-1.7-1.3c-.5-.5-1.1-1-1.6-1.5s-.8-.9-1.1-1.6c-.3-.6-.5-1.4-.6-2.5-.1-1-.2-2.3-.2-2.9s.2-.6.3-.5.3.2.5.5.6.8.9 1.3.5 1 .9 1.6 1 1.3 1.6 1.9 1.2 1 1.8 1.4c.5.3 1 .5 1.7.6s1.6 0 2.4-.1c.7-.2 1.3-.4 1.8-.7s.9-.7 1.3-1.1c.4-.8.8-1.4 1.5-2.2zm1.9 11c.6-.2 1.3-.6 2.4-1.1 1.1-.6 2.8-1.4 4.6-2.5s3.7-2.3 5.7-3.9 4.1-3.4 6-5.3 3.7-4 5-5.7c1.3-1.8 2-3.2 2.3-4.6.4-1.3.4-2.4.3-3.4 0-.9-.1-1.7-.1-2.3s.2-.9.5-1.3.8-.9 1.3-1.1c.5-.3 1-.4 1.8-.5s2-.2 2.6-.2.6 0 0-.7c-.5-.6-1.6-1.9-2.4-2.9s-1.2-1.7-1.4-2.1-.2-.4.2-.7 1.2-1 2-1.9c.7-.9 1.4-2 1.9-3.2s.8-2.4 1-3.6.2-2.4.1-3.8-.3-3.1-.6-4.8c-.2-1.8-.5-3.6-1-5.7s-1.2-4.5-2-6.6-1.6-3.8-2.5-5.3c-.8-1.5-1.6-2.6-2.8-3.9-1.1-1.3-2.6-2.7-4-3.7-1.5-1-3-1.5-4.2-1.7-1.3-.3-2.3-.3-2.8-.3s-.5 0-.4-.5.3-1.4.4-2.1.1-1.2.2-1.7.4-1.1.5-1.5c.1-.5.1-.8.1-1s-.1-.2-.4-.2c-.2.1-.6.2-.9.5s-.7.7-1 1-.6.5-1.1.6c-.5.2-1.2.3-1.8.4-.5.1-.9.2-1.1.2s-.2 0-.5-.4c-.3-.5-.8-1.4-1.4-2.3s-1.2-1.8-2.1-2.7-2-1.7-3.2-2.4-2.5-1.1-4.1-1.5-3.6-.8-5.4-1c-1.9-.2-3.7-.4-5.8-.4s-4.6 0-6.8.2-4.1.4-5.9.7-3.3.7-4.8 1.1c-1.4.5-2.7 1-3.7 1.5s-1.7 1.1-2.3 1.7c-.7.7-1.4 1.4-1.8 2.1-.5.7-.7 1.4-.9 2s-.3 1.1-.4 1.4-.1.3-.5.2c-.4 0-1.3-.1-2-.2s-1.2-.1-1.7-.3-.9-.6-1.4-.9-.9-.5-1.3-.7c-.4-.1-.7-.2-.9-.1s-.2.2-.2.5c.1.2.2.6.5 1 .2.4.6.9.7 1.8s0 2.1-.1 2.8v1.2c0 .2.1.2-.4.2-.5.1-1.5.2-2.5.4-.9.2-1.7.4-2.6.8s-1.8.9-2.7 1.5c-.9.7-1.7 1.5-2.5 2.7s-1.7 2.7-2.4 4.1-1.3 2.8-1.9 4.1c-.6 1.4-1.2 2.7-1.8 4.1-.5 1.4-1 2.8-1.4 4.6-.5 1.8-.9 4-1.2 6.1s-.4 4-.5 5.6c0 1.6.1 2.9.3 4.3.3 1.3.7 2.7 1.2 3.6s1 1.4 1.8 2.1c.7.7 1.6 1.5 2.1 1.9s.5.4-.1 1.1c-.5.7-1.6 2.1-2.4 3s-1.2 1.4-1.4 1.7-.2.4.1.5c.3 0 .8-.1 1.3-.2s1-.2 1.6 0c.6.1 1.4.5 2 .8s1 .5 1.2.5c.2.1.2.1.1.7s-.3 1.9-.3 3.1c-.1 1.2 0 2.3.2 3.3.2 1.1.7 2.1 1.2 3.1s1 1.9 1.8 2.8c.8 1 1.8 2 2.7 3s1.8 1.9 2.8 2.8c.9.9 1.9 1.8 3 2.7s2.3 1.7 3.4 2.5c1.1.7 2.2 1.4 3.4 2.1s2.7 1.4 4 2 2.5 1 3.8 1.3c1.3.4 2.6.7 3.8.8 1.1.2 2.1.2 3.1 0s2-.5 2.9-1 1.8-1.1 2.2-1.4.4-.3.7 0c.3.2.9.7 1.5 1.2.5.5 1 .9 1.2 1.2s.3.5.4 1.1.2 1.6.2 2.5c.1.9.1 1.7.2 2.2s.3.5.5.6c.2 0 .6 0 .7-.2.2-.2.2-.7.2-1.6v-3c0-.7 0-.7.4-1.1s1.1-1.3 1.8-1.9c.6-.6 1.1-.9 1.3-1.1.3-.2.4-.2.6-.1s.7.5 1.1.8.8.7 1.3 1 .9.5 1.8.5c.8.1 1.9.1 3 0s2.1-.3 2.9-.5c.7-.7 1.3-.9 1.9-1.1zm-42.2-84.3c.6.5 1 1.2 1.3 1.9.3.6.4 1.2.5 1.4.1.3.1.3-.1.4l-.6.6c-.2.2-.2.2-.4.1s-.7-.2-1.3-.4c-.6-.3-1.2-.7-1.7-1.2s-.7-1.2-.9-1.9c-.1-.7-.1-1.5-.1-1.9s0-.4.2-.3.6.2 1.2.4 1.3.4 1.9.9zm63.2 30.1c.6 1.1 1.3 2.3 1.8 3.2.6.9 1 1.5 1.3 2s.5 1 .7 1.6c.1.5.2 1.1.1 1.9-.1.7-.4 1.6-.6 2.3-.3.6-.6 1-1.1 1.4s-1.1.8-1.9 1.2-1.6.7-2.3.9-1.2.2-1.8.4c-.6.1-1.1.3-1.5.4s-.5.2-.6.3-.2.2.4.4 1.8.5 2.8.7 1.9.3 2.5.2c.7-.1 1.2-.2 1.8-.5s1.3-.7 1.9-1c.6-.4 1.2-.7 1.7-1.1.6-.5 1.2-1.1 1.6-1.7.5-.7.8-1.4 1.1-2.3s.4-2 .5-3.4c.1-1.3 0-2.8-.1-4.4s-.4-3.3-.7-5c-.4-1.7-.8-3.5-1.3-5.1s-1-3.1-1.4-4.1-.8-1.6-1.2-2.3-.7-1.6-1.3-2.6-1.4-2.2-2.2-3.4c-.8-1.1-1.6-2.2-2.4-2.9s-1.6-1.1-2.4-1.4c-.9-.3-1.8-.5-2.7-.6s-1.8-.2-2.6-.2-1.5.1-2.2.3-1.5.4-2 .8c-.6.4-1 1-1.4 1.4s-.9.7-1.2 1-.4.6-.5.9l-.2.6c0 .1 0 .1.3 0 .4-.1 1.1-.4 1.8-.7.7-.2 1.3-.4 1.8-.6.5-.1.9-.2 1.3-.3.5-.1 1.1-.3 1.6-.4.6-.1 1.1-.1 1.6 0 .5 0 .9.1 1.3.4.4.2.8.6 1.2.9s.7.6 1 .9.6.6.9 1.2c.3.5.6 1.2.8 1.9s.2 1.3.2 2-.2 1.4-.3 2.2 0 1.6.2 2.6.5 2.2.9 3.4.9 2.3 1.4 3.4c.4.9.8 2.1 1.4 3.2zm-36.5 50c-.2-.7-.4-1.2-.6-1.4-.1-.2-.1-.2-.3-.3l-.9-.1c-.2 0-.2 0-.4.2-.1.2-.4.6-.7 1.2s-.5 1.3-.5 2 .2 1.4.6 2 1 1.2 1.2 1.5c.3.3.3.3.4.1s.3-.6.6-1.1.7-1.2.7-1.9c.3-.7.1-1.5-.1-2.2zm-40.5-30c-.1-.2-.1-.2-.3-.3-.2 0-.7-.1-1.4-.1-.6 0-1.4.1-2.1.4-.6.3-1.2.7-1.6 1.4-.4.6-.7 1.4-.9 1.7-.2.4-.2.4.1.4.2 0 .7.1 1.3.1.6.1 1.3.1 2-.1s1.4-.7 2-1.2l1.1-1.1c.2-.2.2-.2.1-.4zm78.3-.7c-.1.2-.1.2.1.4s.6.6 1.2 1 1.3.8 2.1 1c.7.1 1.5 0 2-.1.6-.1 1-.2 1.3-.2.2 0 .2 0 0-.4s-.6-1.1-1-1.6c-.5-.6-1-1-1.7-1.2s-1.5-.2-2.1-.2c-.6.1-1.1.2-1.3.3s-.2.1-.3.3zm-14.7-47.7c.2-.6.5-1.3.9-1.9.5-.5 1-.9 1.7-1.1s1.5-.3 1.9-.4c.4 0 .4 0 .4.2s-.1.7-.2 1.3-.2 1.3-.7 1.9c-.4.6-1.1 1.2-1.7 1.6s-1.1.6-1.3.7-.2.1-.4 0l-.7-.5c-.2-.1-.2-.1-.2-.4.1-.2.1-.7.3-1.4z"/><path d="m273.6 259c-.3-.6-.7-1.4-1.3-1.9s-1.3-.7-1.8-.9c-.6-.2-1-.4-1.2-.4-.2-.1-.2-.1-.2.3s0 1.2.1 1.9.4 1.4.9 1.9 1.1.9 1.7 1.2 1.1.4 1.3.4c.2.1.2.1.4-.1l.6-.6c.2-.2.2-.2.1-.4-.2-.3-.3-.8-.6-1.4z" fill="#fff"/><path d="m256.8 306.8c-.6 0-1.4.1-2.1.4-.6.3-1.2.7-1.6 1.4-.4.6-.7 1.4-.9 1.7-.2.4-.2.4.1.4.2 0 .7.1 1.3.1.6.1 1.3.1 2-.1s1.4-.7 2-1.2c.5-.5.9-.9 1.1-1.1s.2-.2.1-.4l-.3-.8c-.1-.2-.1-.2-.3-.3-.2 0-.7-.1-1.4-.1z" fill="#fff"/><path d="m336.9 306.9c.2.2.6.6 1.2 1s1.3.8 2.1 1c.7.1 1.5 0 2-.1.6-.1 1-.2 1.3-.2.2 0 .2 0 0-.4s-.6-1.1-1-1.6c-.5-.6-1-1-1.7-1.2s-1.5-.2-2.1-.2c-.6.1-1.1.2-1.3.3s-.2.1-.3.3l-.2.9c-.2 0-.2 0 0 .2z" fill="#fff"/><path d="m323.2 261.1c.2-.1.7-.3 1.3-.7s1.3-.9 1.7-1.6c.4-.6.5-1.4.7-1.9.1-.6.2-1 .2-1.3 0-.2 0-.2-.4-.2s-1.2.1-1.9.4c-.7.2-1.3.6-1.7 1.1-.5.5-.8 1.3-.9 1.9-.2.6-.2 1.1-.2 1.4 0 .2 0 .2.2.4l.7.5c0 .2 0 .2.3 0z" fill="#fff"/><path d="m299 337.2c-.2-.7-.4-1.2-.6-1.4-.1-.2-.1-.2-.3-.3l-.9-.1c-.2 0-.2 0-.4.2-.1.2-.4.6-.7 1.2s-.5 1.3-.5 2 .2 1.4.6 2 1 1.2 1.2 1.5c.3.3.3.3.4.1s.3-.6.6-1.1.7-1.2.7-1.9c.3-.7.1-1.5-.1-2.2z" fill="#fff"/><path d="m289.8 278.7c1-.3 2.1-.4 3-.1s1.7.9 2.5 1.8c.8.8 1.6 1.9 1.9 2.4.4.5.4.5.8.1.4-.5 1.1-1.4 1.9-2.1.7-.7 1.4-1.3 2.2-1.7s1.7-.6 2.5-.7c.8 0 1.5.1 2.4.5.9.5 2 1.2 2.7 2s1.1 1.7 1.4 2.5.3 1.6.2 2.5c-.1.8-.4 1.7-.8 2.5-.5.8-1.1 1.6-1.4 2s-.1.5.4.6 1.5.3 2.3.6 1.5.7 2.1 1.4 1 1.6 1.3 2.4c.2.9.3 1.7.2 2.6s-.4 1.8-.8 2.7c-.4.8-.9 1.6-1.6 2.1-.6.6-1.3 1-2 1.4-.7.3-1.5.5-2.2.5s-1.5 0-2.1-.2c-.7-.2-1.3-.5-1.6-.6s-.3-.1-.3.3.1 1.3 0 2.2-.4 2-.7 2.7c-.3.8-.7 1.3-1.3 1.7-.6.5-1.4.9-2 1.1-.7.3-1.3.4-1.9.5s-1.2.1-1.9 0c-.7 0-1.3-.1-2-.5-.7-.3-1.3-.9-1.8-1.4-.5-.6-1-1.2-1.3-1.9s-.6-1.4-.6-2.1c-.1-.7 0-1.4.1-1.8 0-.4 0-.5 0-.5s-.1 0-.3 0c-.2.1-.4.2-.9.4-.6.2-1.5.3-2.4.4-1 .1-2 .1-2.9-.1s-1.5-.7-2.1-1.2-1.1-1.2-1.5-1.8-.7-1.3-.9-2-.3-1.6-.2-2.5.5-1.9 1-2.7c.5-.7 1-1.2 1.6-1.7s1.2-.9 1.8-1.2c.5-.2 1-.3 1.4-.3h1.1c.2 0 .2-.1.2-.3s-.1-.4-.2-.6c-.2-.2-.4-.5-.8-.9s-.8-.9-1.1-1.6-.6-1.7-.6-2.7c0-.9.2-1.8.7-2.7.5-.8 1.1-1.6 2-2.3.5-.7 1.5-1.3 2.5-1.7zm5.9-.4 1.6 2.4.4.6.2-.2c.2-.2.7-.7 1.1-1.3.4-.5.8-1.2 1-1.5.2-.4.3-.5.4-.5 0-.1 0-.1-.4-.7l-1.8-2.4-.5-.6-.4.6-1.6 2.4-.4.6zm15-.6c-.7-.7-1.4-1.1-2.3-1.4s-1.9-.4-2.9-.3-1.9.3-2.5.4-.8.2-.9.2-.1 0-.6-.4-1.4-1.3-2-1.9-.9-1-1.1-1.3-.2-.7-.3-.9c-.1-.3-.3-.6-.4-.7s-.2-.1-.3.2-.3.9-.4 1.3-.1.5-.1.7c0 .1-.1.3-.5.8s-1.2 1.4-1.6 1.9-.4.5-.8.3c-.4-.1-1.3-.3-2.1-.5-.8-.1-1.6-.2-2.3-.2s-1.5.1-2.2.3-1.4.6-2.1 1.1c-.6.5-1.2 1.2-1.6 1.8-.4.7-.6 1.3-.8 2s-.5 1.4-.7 2.3-.5 1.8-.6 2.3-.1.5-1 .7-2.8.6-3.8.8-1.1.3-1.2.3c-.1.1-.1.2.4.5.5.4 1.4 1.1 2.1 1.6.7.6 1 1.1 1.2 1.5.2.5.2.9.1 1.2 0 .4-.1.7-.5 1.2-.3.5-.9 1.3-1.3 2.1s-.5 1.7-.5 2.6 0 1.7.2 2.5.4 1.6.9 2.2c.4.7 1 1.2 1.6 1.6.5.5 1 .8 1.5 1.1s.9.5 1.4.6.9.2 1.2.3.4.1.5.3.1.4.2.9v1.6c0 .5.1.8 0 1.2 0 .4-.2.8-.3 1.1-.2.3-.3.5-.4.7s0 .2 0 .3c.1.1.2.2.3.2.1.1.2.1.4.1.1 0 .3 0 .5-.2l.8-.8c.3-.3.7-.5 1.2-.7s1.1-.4 1.6-.5.8-.1 1.3.2 1 .8 1.5 1.3.9.9 1.5 1.3c.6.5 1.5.9 2.3 1.2s1.6.4 2.5.4 1.8-.2 2.4-.3c.7-.1 1.1-.3 1.6-.6s1.2-.9 1.8-1.4c.5-.5.9-1 1.2-1.4.2-.4.3-.7.4-.9 0-.2 0-.2.3-.1.3 0 .9.1 1.5 0 .6 0 1.2-.1 1.6-.2.3 0 .3 0 .4.1.1.2.3.5.7.8.3.3.7.6 1 .8s.5.2.6.1l.3-.3c.1-.1.1-.1 0-.3s-.4-.7-.5-1.2c-.2-.5-.2-1.2-.2-1.9s.2-1.5.2-2c.1-.5.1-.7.1-.8s0-.1.3-.2.8-.3 1.4-.5 1.1-.4 1.7-.7c.6-.4 1.1-1 1.6-1.6s1-1.2 1.4-1.9c.4-.8.6-1.7.6-2.6s-.2-1.7-.5-2.5-.7-1.7-1-2.4-.6-1.2-.7-1.5-.1-.3.1-.7c.2-.5.7-1.4 1.2-2.1s.9-1 1.3-1.3.8-.6 1.1-.8c.2-.2.3-.3.3-.4-.1-.1-.3-.1-.8 0-.5 0-1.3.1-2 0s-1.3-.4-1.8-.6-1-.3-1.3-.5c-.3-.1-.3-.2-.4-.7 0-.5-.1-1.5-.2-2.3-.1-.9-.2-1.7-.6-2.5-.8-.4-1.5-1.3-2.2-2zm-.8 12.4.3.1 1.5.5c.6.2 1.3.3 1.7.4s.5.1.6.2c.1 0 .1 0 .5-.5l1.8-2.3.5-.6-.7-.2-2.7-.6-.7-.2-.5.5-1.9 2.1zm-26.9-2.3c-.3-.3-.4-.4-.4-.4 0-.1 0-.1-.7.2l-2.7 1-.7.3.5.5 2 1.9.5.5.7-.2 2.7-.8.7-.2-.2-.2c-.2-.2-.6-.7-1-1.2-.6-.6-1.1-1.1-1.4-1.4zm22.9 20.6c.1.4.1.6.1.6 0 .1 0 .1.7.3l2.8.8.7.2-.1-.7-.5-2.7-.1-.7-.7-.2-2.6-.9-.7-.2v.3c0 .3 0 .9.1 1.6.1.6.3 1.2.3 1.6zm-19-2c-.4.1-.5.2-.6.2s-.1 0-.2.7l-.3 2.9-.1.7.7-.2 2.6-.9.7-.2.1-.7.5-2.8.1-.7-.3.1c-.3.1-.9.2-1.6.4-.6.1-1.3.4-1.6.5z"/><path d="m297.9 285.8c-4.7 0-8.6 3.8-8.6 8.6 0 4.7 3.8 8.6 8.6 8.6 4.7 0 8.6-3.8 8.6-8.6-.1-4.7-3.9-8.6-8.6-8.6zm0 2.4c3.4 0 6.2 2.8 6.2 6.2s-2.8 6.2-6.2 6.2-6.2-2.8-6.2-6.2 2.7-6.2 6.2-6.2z"/><path d="m289.3 294.4c0-4.7 3.8-8.6 8.6-8.6 4.7 0 8.6 3.8 8.6 8.6 0 4.7-3.8 8.6-8.6 8.6s-8.6-3.9-8.6-8.6zm10.6-13.6c-.7.7-1.5 1.6-1.9 2.1s-.4.5-.8-.1c-.4-.5-1.1-1.6-1.9-2.4s-1.6-1.5-2.5-1.8-2-.2-3 .1-2 1-2.8 1.7-1.5 1.5-2 2.3-.7 1.7-.7 2.7c0 .9.2 1.9.6 2.7.3.7.8 1.2 1.1 1.6.4.4.6.7.8.9s.2.5.2.6c0 .2 0 .2-.2.3-.2 0-.7 0-1.1 0-.5 0-.9 0-1.4.3-.5.2-1.2.7-1.8 1.2s-1.1 1-1.6 1.7-.9 1.7-1 2.7c-.1.9 0 1.8.2 2.5s.5 1.4.9 2 .9 1.3 1.5 1.8 1.3 1 2.1 1.2c.9.2 1.9.2 2.9.1s1.9-.3 2.4-.4c.6-.2.8-.3.9-.4.2-.1.2-.1.3 0v.5c0 .4-.1 1.1-.1 1.8.1.7.3 1.4.6 2.1s.8 1.3 1.3 1.9 1.2 1.1 1.8 1.4c.7.3 1.3.4 2 .5h1.9c.6-.1 1.2-.2 1.9-.5s1.4-.7 2-1.1c.6-.5 1-.9 1.3-1.7s.6-1.8.7-2.7.1-1.8 0-2.2c0-.4 0-.4.3-.3s.9.4 1.6.6 1.4.3 2.1.2c.7 0 1.5-.2 2.2-.5s1.4-.8 2-1.4 1.1-1.3 1.6-2.1c.4-.8.7-1.8.8-2.7s.1-1.8-.2-2.6c-.2-.9-.7-1.8-1.3-2.4-.6-.7-1.2-1.1-2.1-1.4-.8-.3-1.8-.5-2.3-.6s-.7-.2-.4-.6.9-1.2 1.4-2 .7-1.7.8-2.5 0-1.6-.2-2.5-.7-1.7-1.4-2.5-1.8-1.6-2.7-2c-.9-.5-1.6-.6-2.4-.5-.8 0-1.7.3-2.5.7-.5.3-1.2.9-1.9 1.7z" fill="#fff"/><path d="m295.7 278.3 1.6 2.4.4.6.2-.2c.2-.2.7-.7 1.1-1.3.4-.5.8-1.2 1-1.5.2-.4.3-.5.4-.5 0-.1 0-.1-.4-.7l-1.8-2.4-.5-.6-.4.6-1.6 2.4-.4.6z" fill="#fff"/><path d="m284.2 289c-.4-.5-1-.9-1.3-1.2s-.4-.4-.4-.4c0-.1 0-.1-.7.2l-2.7 1-.7.3.5.5 2 1.9.5.5.7-.2 2.7-.8.7-.2-.2-.2c-.2-.4-.6-.9-1.1-1.4z" fill="#fff"/><path d="m312.3 287.5-1.9 2.1-.5.5.3.1 1.5.5c.6.2 1.3.3 1.7.4s.5.1.6.2c.1 0 .1 0 .5-.5l1.8-2.3.5-.6-.7-.2-2.7-.6-.7-.2z" fill="#fff"/><circle cx="297.9" cy="294.4" fill="#ffde17" r="6.2"/><path d="m290.1 305.5c-.3.1-.9.2-1.6.4-.6.2-1.3.4-1.7.6-.4.1-.5.2-.6.2s-.1 0-.2.7l-.3 2.9-.1.7.7-.2 2.6-.9.7-.2.1-.7.5-2.8.1-.7z" fill="#fff"/><path d="m305.7 306.7c.1.7.2 1.3.3 1.7s.1.6.1.6c0 .1 0 .1.7.3l2.8.8.7.2-.1-.7-.5-2.7-.1-.7-.7-.2-2.6-.9-.7-.2v.3c0 .2 0 .9.1 1.5z" fill="#fff"/></g><path d="m298.8 243.3h1.6c2.1 0 3.9.2 5.8.4s3.8.6 5.4 1 2.9.9 4.1 1.5c1.2.7 2.3 1.5 3.2 2.4s1.5 1.8 2.1 2.7 1.1 1.9 1.4 2.3c.2.4.3.4.3.4h.1c.2 0 .5-.1 1.1-.2.5-.1 1.3-.2 1.8-.4s.8-.3 1.1-.6.6-.7 1-1c.3-.3.7-.5.9-.5h.2c.1 0 .2.1.2.2 0 .2 0 .6-.1 1-.1.5-.4 1-.5 1.5s-.1 1-.2 1.7-.3 1.7-.4 2.1c-.1.5-.1.5.4.5s1.6.1 2.8.3c1.3.3 2.7.8 4.2 1.7 1.5 1 2.9 2.4 4 3.7s1.9 2.5 2.8 3.9c.8 1.5 1.7 3.2 2.5 5.3s1.5 4.5 2 6.6.8 4 1 5.7c.2 1.8.5 3.4.6 4.8s0 2.6-.1 3.8c-.2 1.2-.5 2.4-1 3.6s-1.2 2.3-1.9 3.2-1.6 1.6-2 1.9-.4.3-.2.7.7 1.1 1.4 2.1c.8 1 1.8 2.3 2.4 2.9.5.6.5.6 0 .7-.6 0-1.8.1-2.6.2s-1.3.2-1.8.5-1 .7-1.3 1.1-.5.8-.5 1.3c0 .6.1 1.3.1 2.3 0 .9 0 2.1-.3 3.4-.4 1.3-1.1 2.8-2.3 4.6-1.3 1.8-3.1 3.8-5 5.7s-4 3.8-6 5.3c-2 1.6-3.9 2.8-5.7 3.9s-3.4 1.9-4.6 2.5c-1.1.6-1.8.9-2.4 1.1s-1.1.4-1.9.6-1.8.4-2.9.5c-.6.1-1.2.1-1.7.1s-.9 0-1.3-.1c-.8-.1-1.3-.3-1.8-.5-.5-.3-.9-.6-1.3-1-.4-.3-.8-.7-1.1-.8-.1-.1-.2-.1-.2-.1-.1 0-.2.1-.4.2-.3.2-.7.5-1.3 1.1s-1.4 1.4-1.8 1.9c-.4.4-.4.4-.4 1.1v3c0 .9 0 1.4-.2 1.6-.1.2-.3.2-.5.2-.1 0-.2 0-.2 0-.2 0-.4-.1-.5-.6s-.2-1.3-.2-2.2c-.1-.9-.2-1.9-.2-2.5-.1-.6-.1-.8-.4-1.1-.2-.3-.7-.7-1.2-1.2s-1.2-.9-1.5-1.2c-.2-.1-.2-.2-.3-.2s-.2.1-.4.2c-.4.3-1.3.9-2.2 1.4s-1.9.8-2.9 1c-.5.1-1 .1-1.5.1s-1 0-1.5-.1c-1.1-.2-2.5-.5-3.8-.8-1.3-.4-2.5-.8-3.8-1.3-1.3-.6-2.8-1.3-4-2s-2.3-1.3-3.4-2.1c-1.1-.7-2.3-1.6-3.4-2.5s-2.1-1.8-3-2.7-1.8-1.8-2.8-2.8c-.9-1-1.9-2-2.7-3s-1.3-1.9-1.8-2.8c-.5-1-.9-2-1.2-3.1-.2-1.1-.3-2.1-.2-3.3s.2-2.4.3-3.1c.1-.6.1-.6-.1-.7s-.6-.3-1.2-.5c-.6-.3-1.4-.6-2-.8-.2 0-.4-.1-.6-.1-.3 0-.7.1-1 .1-.4.1-.9.2-1.2.2h-.1c-.3 0-.3-.2-.1-.5s.7-.7 1.4-1.7c.8-.9 1.8-2.3 2.4-3 .5-.7.5-.7.1-1.1-.5-.4-1.4-1.2-2.1-1.9s-1.3-1.1-1.8-2.1c-.5-.9-.9-2.3-1.2-3.6s-.4-2.6-.3-4.3c0-1.6.2-3.6.5-5.6.3-2.1.7-4.3 1.2-6.1s.9-3.2 1.4-4.6 1.2-2.7 1.8-4.1 1.2-2.7 1.9-4.1 1.6-2.9 2.4-4.1 1.6-2 2.5-2.7 1.8-1.2 2.7-1.5c.9-.4 1.7-.6 2.6-.8s2-.3 2.5-.4.5-.1.4-.2c0-.2-.1-.5 0-1.2 0-.8.2-2 .1-2.8-.1-.9-.4-1.4-.7-1.8-.2-.4-.4-.7-.5-1-.1-.2 0-.4.2-.5h.2c.2 0 .4.1.7.1.4.1.8.4 1.3.7s.9.7 1.4.9 1 .3 1.7.3c.7.1 1.6.2 2 .2h.3c.2 0 .2-.1.2-.2.1-.3.2-.8.4-1.4s.5-1.3.9-2c.5-.7 1.1-1.5 1.8-2.1.7-.7 1.4-1.2 2.3-1.7 1-.5 2.3-1.1 3.7-1.5 1.4-.5 3-.8 4.8-1.1s3.7-.6 5.9-.7c1.6.4 3.5.3 5.2.3m0-1.5c-1.9 0-3.7.1-5.3.2-2 .1-4 .4-6.1.8-1.9.3-3.5.7-5 1.2s-2.9 1-4 1.6c-1 .6-1.8 1.1-2.7 2-.8.8-1.5 1.6-2 2.4-.6.9-.9 1.7-1.1 2.4-.1.2-.1.4-.2.5-.4 0-.8-.1-1.1-.1h-.1c-.5-.1-.9-.1-1.2-.2-.2-.1-.5-.3-.7-.5-.2-.1-.3-.2-.4-.3-.5-.4-1.1-.7-1.7-.9-.4-.2-.8-.2-1.2-.2-.3 0-.5 0-.7.1-.9.3-1.4 1.3-1.1 2.3.1.5.4.9.7 1.4.2.4.4.6.4 1.1.1.5 0 1.3-.1 2v.6.2c-.5.1-1 .2-1.6.3-1.1.2-2 .5-2.9.9-1.1.5-2.2 1.1-3.1 1.7-1 .8-1.9 1.8-2.8 3-.8 1.1-1.7 2.7-2.5 4.3-.6 1.2-1.1 2.4-1.6 3.5l-.3.7-.3.7c-.5 1.1-1 2.2-1.5 3.4-.6 1.5-1.1 3-1.5 4.8-.5 2-.9 4.3-1.2 6.2-.3 2-.4 4-.5 5.8 0 1.8.1 3.2.4 4.6.3 1.5.8 3 1.4 4 .6 1.2 1.3 1.8 2.1 2.5.5.4 1 .9 1.5 1.3-.6.7-1.4 1.8-2 2.6-.4.4-.6.8-.9 1-.3.3-.5.5-.6.8-.6.8-.4 1.5-.2 1.9.1.3.5.9 1.5 1h.2c.4 0 .9-.1 1.4-.2.3 0 .5-.1.7-.1h.3c.4.1 1.1.4 1.6.6h.1c.1.1.2.1.4.2-.1.7-.2 1.7-.3 2.7-.1 1.4 0 2.6.3 3.7.2 1 .7 2.1 1.3 3.4.6 1.2 1.2 2.1 2 3.1.8 1.1 1.9 2.2 2.8 3.1l2.8 2.8c1.2 1.1 2.2 2 3.1 2.8 1 .8 2.2 1.7 3.6 2.6 1.2.8 2.3 1.5 3.5 2.1 1.4.8 2.9 1.5 4.1 2 1.3.5 2.5 1 4 1.4 1 .3 2.6.7 4 .9.6.1 1.2.1 1.8.1s1.2-.1 1.8-.2c1.1-.2 2.2-.6 3.3-1.2.7-.4 1.4-.8 1.9-1.1.3.2.6.5.9.7.6.5.9.8 1 .9 0 .1 0 .3.1.4.1.6.2 1.6.2 2.4v.4c.1.9.1 1.5.2 2 .3 1.2 1.1 1.6 1.8 1.7h.5c.7 0 1.4-.3 1.7-.9.4-.6.4-1.3.4-2.5v-3-.1c.4-.4 1.1-1.2 1.7-1.8.2-.2.5-.4.6-.6l.3.3.2.1c.4.3.8.7 1.3 1 .7.4 1.4.6 2.4.7.4 0 1 .1 1.5.1.6 0 1.3 0 1.9-.1 1-.1 2-.3 3.1-.6.8-.2 1.4-.4 2.1-.7s1.4-.6 2.6-1.2c1.6-.8 3.2-1.7 4.6-2.5 2.2-1.3 4.1-2.6 5.9-4 2-1.6 4.1-3.5 6.2-5.5 2.1-2.1 3.9-4.2 5.2-5.9 1.3-1.8 2.1-3.5 2.6-5 .4-1.5.4-2.8.4-3.9 0-.4 0-.7-.1-1 0-.5-.1-.9 0-1.1 0-.3 0-.3.2-.5.2-.3.6-.6.8-.7s.5-.2 1.3-.3 2-.2 2.5-.2c.4 0 1.4-.1 1.7-1 .4-.9-.2-1.6-.6-2.2-.5-.6-1.6-1.9-2.3-2.8-.4-.5-.6-.9-.9-1.2.4-.4 1-.9 1.5-1.6.8-1 1.6-2.3 2.1-3.6.5-1.2.9-2.5 1.1-4 .2-1.3.2-2.6.1-4.1s-.3-3.2-.6-5c-.3-1.9-.5-3.7-1-5.9s-1.3-4.7-2.1-6.8c-.7-2-1.6-3.8-2.6-5.5-.9-1.6-1.8-2.8-2.9-4.2-1-1.2-2.6-2.8-4.3-4-1.4-.9-3-1.6-4.7-2-.7-.1-1.3-.2-1.8-.3.1-.3.1-.7.2-1 0-.3.1-.5.1-.7 0-.3.1-.6.1-.8.1-.2.2-.4.2-.7.1-.2.2-.5.3-.8.2-.6.2-1.3.1-1.8-.2-.9-.9-1.4-1.7-1.4-.2 0-.4 0-.6.1-.5.1-1 .5-1.5.8-.3.2-.5.5-.7.7-.1.1-.2.3-.3.4s-.2.2-.6.3-.9.2-1.3.3l-.3.1c-.1 0-.1 0-.2 0-.3-.5-.7-1.2-1.1-1.9-.6-.9-1.3-1.9-2.3-3-1-1-2.3-2-3.6-2.7s-2.6-1.2-4.5-1.6c-1.7-.4-3.7-.8-5.6-1-2-.3-3.8-.4-6-.4-.9.4-1.4.4-2 .4z"/></svg>