<?xml version="1.0" encoding="UTF-8" standalone="no"?>
<svg
   xmlns:dc="http://purl.org/dc/elements/1.1/"
   xmlns:cc="http://creativecommons.org/ns#"
   xmlns:rdf="http://www.w3.org/1999/02/22-rdf-syntax-ns#"
   xmlns:svg="http://www.w3.org/2000/svg"
   xmlns="http://www.w3.org/2000/svg"
   xmlns:sodipodi="http://sodipodi.sourceforge.net/DTD/sodipodi-0.dtd"
   xmlns:inkscape="http://www.inkscape.org/namespaces/inkscape"
   inkscape:version="1.0 (4035a4f, 2020-05-01)"
   sodipodi:docname="Logo_Udinese_Calcio_2010.svg"
   id="svg1166"
   viewBox="0 0 497.88864 480.68884"
   version="1.1"
   height="480.68884mm"
   width="497.88864mm">
  <sodipodi:namedview
     inkscape:current-layer="svg1166"
     inkscape:window-maximized="1"
     inkscape:window-y="25"
     inkscape:window-x="0"
     inkscape:cy="1033.3169"
     inkscape:cx="645.88549"
     inkscape:zoom="0.21223318"
     inkscape:pagecheckerboard="true"
     fit-margin-bottom="0"
     fit-margin-right="0"
     fit-margin-left="0"
     fit-margin-top="0"
     showgrid="false"
     id="namedview1168"
     inkscape:window-height="793"
     inkscape:window-width="1440"
     inkscape:pageshadow="2"
     inkscape:pageopacity="0"
     guidetolerance="10"
     gridtolerance="10"
     objecttolerance="10"
     borderopacity="1"
     bordercolor="#666666"
     pagecolor="#ffffff" />
  <defs
     id="defs836">
    <clipPath
       id="clipPath410">
      <path
         id="path833"
         d="m 213.31,31.147 h 61.021 V 90.06 H 213.31 Z" />
    </clipPath>
  </defs>
  <metadata
     id="metadata838">
    <rdf:RDF>
      <cc:Work
         rdf:about="">
        <dc:format>image/svg+xml</dc:format>
        <dc:type
           rdf:resource="http://purl.org/dc/dcmitype/StillImage" />
        <dc:title></dc:title>
      </cc:Work>
    </rdf:RDF>
  </metadata>
  <g
     id="g1164"
     transform="translate(-1.060283,393.34656)">
    <g
       id="g1162"
       fill="#ff00ff"
       transform="matrix(8.1593,0,0,-8.1593,-1739.4,341.48)">
      <path
         style="fill:#b3b3b3;fill-opacity:1"
         id="path840"
         fill="#b2b3b5"
         d="m 234.31,42.693 1.4591,-0.80117 c 0,0 1.6946,-0.52207 1.7374,-0.53062 0.0428,-0.008 1.4721,-0.49642 1.4721,-0.49642 l 2.3279,-0.43649 2.7559,-0.16261 2.0198,0.12837 2.2937,0.47073 1.686,0.40225 2.3622,0.97571 2.3622,1.3694 1.8144,1.3095 1.6347,1.4892 1.7631,2.0027 2.0113,3.3978 0.71892,1.8144 0.79595,3.0126 0.34235,1.8487 0.0941,2.4563 -0.21397,2.4563 -0.40225,1.9685 -0.42793,1.4635 -1.0185,2.3964 -0.76171,1.5406 -1.5577,2.191 -1.3865,1.7117 -2.2852,1.9599 -2.2937,1.5662 -2.7302,1.1725 -2.7302,0.79595 -2.4649,0.46217 -3.0212,0.0599 -2.6617,-0.26532 -2.4221,-0.60766 -2.4478,-0.96712 -2.405,-1.318 -2.405,-1.8829 -1.2838,-1.1383 -1.2667,-1.5063 -1.1212,-1.5833 -1.027,-1.8144 -0.80452,-1.6432 -0.62477,-2.0541 -0.52208,-2.1739 -0.23108,-2.1311 0.11982,-2.7644 0.17117,-1.5149 0.50496,-2.3536 0.76172,-2.1396 0.97568,-1.9428 1.609,-2.6703 2.559,-2.6788 2.0113,-1.6518 z" />
      <path
         style="fill:#2a2723;fill-opacity:1"
         id="path842"
         opacity="0.96"
         fill="#312c28"
         d="m 235.3,59.169 7.819,10.288 0.58371,0.22621 0.0922,0.03929 0.21935,-0.12167 6.3475,-6.7699 2.3641,-5.2289 0.0383,-0.24991 0.28837,-3.3928 -1.6267,-1.4573 -0.31498,-0.08604 -0.61126,0.12231 -14.001,-0.11633 -1.9335,2.122 0.31157,3.0585 z" />
      <g
         id="g1160"
         clip-path="url(#clipPath410)">
        <g
           id="g896"
           fill="#ffffff">
          <g
             id="g846"
             transform="translate(225.32,61.178)">
            <path
               id="path844"
               fill="#ffffff"
               d="M 0,0 C 0.073,0.461 0.203,0.563 0.762,0.474 L 3.447,0.046 C 4.837,-0.175 5.305,0.749 5.422,1.486 5.581,2.49 5.13,3.24 4.036,3.414 L 1.299,3.85 C 0.748,3.938 0.65,4.083 0.718,4.515 L 0.592,4.534 0.365,3.106 0.492,3.086 C 0.568,3.569 0.703,3.655 1.254,3.567 L 3.961,3.136 C 4.853,2.995 5.3,2.398 5.182,1.654 5.089,1.073 4.681,0.567 3.721,0.719 L 0.873,1.173 C 0.33,1.26 0.221,1.391 0.294,1.852 L 0.169,1.873 -0.127,0.02 Z" />
          </g>
          <g
             id="g850"
             transform="translate(227.99,68.029)">
            <path
               id="path848"
               fill="#ffffff"
               d="M 0,0 C 0.405,0.817 1.319,0.973 2.441,0.417 3.545,-0.13 3.961,-0.909 3.565,-1.708 3.472,-1.898 3.351,-2.053 3.223,-2.155 l -3.371,1.67 C -0.116,-0.279 -0.08,-0.16 0,0 m -0.075,-1.194 2.686,-1.33 C 3.059,-2.747 3.09,-2.87 2.886,-3.283 l 0.098,-0.05 0.757,1.531 C 4.26,-0.756 3.956,0.468 2.742,1.07 1.725,1.574 0.477,1.469 -0.196,0.111 l -0.743,-1.501 0.098,-0.048 c 0.196,0.411 0.317,0.467 0.766,0.244" />
          </g>
          <g
             id="g854"
             transform="translate(230.14,70.713)">
            <path
               id="path852"
               fill="#ffffff"
               d="M 0,0 2.369,-1.833 C 2.746,-2.123 2.778,-2.27 2.501,-2.617 L 2.588,-2.683 3.617,-1.354 3.53,-1.287 C 3.283,-1.607 3.16,-1.682 2.739,-1.356 L 0.369,0.477 C -0.022,0.78 -0.026,0.921 0.242,1.256 l -0.086,0.068 -1.029,-1.33 0.087,-0.067 C -0.523,0.267 -0.391,0.303 0,0" />
          </g>
          <g
             id="g858"
             transform="translate(231.36,72.824)">
            <path
               id="path856"
               fill="#ffffff"
               d="M 0,0 0.294,-0.07 2.38,-2.542 c 0.231,-0.275 0.237,-0.43 -0.063,-0.691 l 0.07,-0.084 1.034,0.873 -0.069,0.084 C 2.988,-2.685 2.84,-2.709 2.505,-2.312 l -1.797,2.129 0.01,0.008 4.192,-1.106 0.068,0.058 -2.504,2.967 C 2.259,1.998 2.269,2.166 2.524,2.382 L 2.453,2.465 1.487,1.65 1.558,1.567 C 1.907,1.87 2.052,1.866 2.367,1.493 L 3.96,-0.395 3.95,-0.403 0.218,0.578 -0.508,-0.035 -0.438,-0.117 C -0.291,0.006 -0.192,0.048 0,0" />
          </g>
          <g
             id="g862"
             transform="translate(235.47,75.431)">
            <path
               id="path860"
               fill="#ffffff"
               d="M 0,0 1.296,-2.702 C 1.515,-3.159 1.459,-3.278 1.046,-3.47 L 1.093,-3.568 3.696,-2.319 3.525,-1.192 3.413,-1.209 C 3.5,-1.88 3.36,-2.21 2.879,-2.441 L 2.312,-2.712 C 2.075,-2.826 2.009,-2.794 1.876,-2.516 l -0.677,1.411 0.729,0.35 c 0.336,0.162 0.521,0.086 0.723,-0.351 L 2.75,-1.057 2.089,0.32 1.99,0.271 C 2.21,-0.171 2.158,-0.374 1.719,-0.585 L 1.093,-0.885 0.352,0.66 1.151,1.043 C 1.602,1.26 1.812,1.282 2.15,0.74 L 2.254,0.79 1.786,1.618 -0.801,0.377 -0.753,0.279 C -0.319,0.502 -0.2,0.417 0,0" />
          </g>
          <g
             id="g866"
             transform="translate(239.29,75.721)">
            <path
               id="path864"
               fill="#ffffff"
               d="M 0,0 C 0.364,-0.223 1.082,-0.44 1.369,-0.615 1.647,-0.786 1.775,-0.96 1.837,-1.216 1.932,-1.615 1.728,-1.974 1.348,-2.066 0.868,-2.181 0.251,-1.926 0.011,-1.119 l -0.118,-0.029 0.343,-1.429 0.118,0.028 c -0.01,0.156 0.048,0.243 0.173,0.273 0.187,0.045 0.491,-0.12 0.921,-0.017 C 2.11,-2.134 2.5,-1.506 2.343,-0.85 2.265,-0.525 2.042,-0.23 1.748,-0.049 1.307,0.221 0.598,0.395 0.242,0.613 0.002,0.76 -0.134,0.945 -0.189,1.169 -0.265,1.488 -0.061,1.794 0.294,1.879 0.682,1.972 1.34,1.787 1.577,0.966 L 1.683,0.991 1.349,2.383 1.243,2.358 C 1.238,2.211 1.175,2.117 1.069,2.092 0.938,2.06 0.643,2.214 0.175,2.102 -0.436,1.954 -0.756,1.416 -0.605,0.786 -0.519,0.43 -0.309,0.19 0,0" />
          </g>
          <g
             id="g870"
             transform="translate(242.28,77.539)">
            <path
               id="path868"
               fill="#ffffff"
               d="M 0,0 0.078,-2.996 C 0.09,-3.503 -0.009,-3.589 -0.465,-3.594 l 0.002,-0.109 2.887,0.074 0.306,1.099 -0.11,0.029 C 2.425,-3.147 2.161,-3.391 1.628,-3.406 L 1,-3.422 c -0.263,-0.007 -0.309,0.05 -0.318,0.358 l -0.04,1.565 0.808,0.021 c 0.372,0.01 0.512,-0.134 0.517,-0.616 l 0.109,0.003 -0.039,1.527 -0.11,-0.003 C 1.947,-1.061 1.816,-1.224 1.329,-1.237 L 0.636,-1.254 0.592,0.458 1.477,0.481 c 0.5,0.014 0.701,-0.052 0.788,-0.685 L 2.381,-0.201 2.292,0.746 -0.576,0.672 -0.573,0.563 C -0.086,0.588 -0.012,0.462 0,0" />
          </g>
          <g
             id="g874"
             transform="translate(248.07,73.071)">
            <path
               id="path872"
               fill="#ffffff"
               d="M 0,0 C 0.718,-0.228 1.373,-0.01 1.952,0.643 L 1.856,0.738 C 1.315,0.182 0.848,0.006 0.281,0.188 -0.58,0.462 -0.922,1.274 -0.44,2.789 0.075,4.404 0.778,5.12 1.667,4.837 2.35,4.62 2.659,3.929 2.455,3.068 L 2.584,3.027 3.013,4.67 2.891,4.709 C 2.792,4.495 2.723,4.43 2.63,4.459 2.45,4.517 2.259,4.91 1.678,5.095 0.494,5.472 -0.746,4.61 -1.239,3.059 -1.747,1.465 -1.005,0.32 0,0" />
          </g>
          <g
             id="g878"
             transform="translate(252.57,74.583)">
            <path
               id="path876"
               fill="#ffffff"
               d="m 0,0 0.01,-0.007 -0.426,-1.579 -0.805,0.517 z m -2.99,-1.755 -0.059,-0.093 0.999,-0.641 0.059,0.091 c -0.274,0.169 -0.311,0.3 -0.221,0.44 0.025,0.038 0.07,0.085 0.132,0.145 l 0.668,0.577 0.928,-0.597 -0.2,-0.763 c -0.048,-0.169 -0.064,-0.218 -0.103,-0.278 -0.098,-0.15 -0.221,-0.155 -0.448,-0.009 l -0.059,-0.092 1.257,-0.808 0.06,0.092 c -0.259,0.167 -0.32,0.227 -0.16,0.82 L 0.881,0.944 0.795,1 -2.183,-1.556 C -2.561,-1.885 -2.725,-1.925 -2.99,-1.755" />
          </g>
          <g
             id="g882"
             transform="translate(252.7,70.767)">
            <path
               id="path880"
               fill="#ffffff"
               d="m 0,0 -0.081,-0.073 1.93,-2.122 1.065,0.545 -0.045,0.097 c -0.752,-0.346 -0.991,-0.312 -1.458,0.2 l -0.306,0.338 c -0.181,0.199 -0.172,0.275 0.041,0.47 L 3.434,1.536 C 3.813,1.881 3.943,1.852 4.25,1.506 L 4.331,1.579 3.156,2.87 3.076,2.797 C 3.387,2.465 3.403,2.323 3.028,1.982 L 0.811,-0.034 C 0.465,-0.349 0.332,-0.374 0,0" />
          </g>
          <g
             id="g886"
             transform="translate(255.48,66.821)">
            <path
               id="path884"
               fill="#ffffff"
               d="M 0,0 C 0.314,-0.56 0.849,-0.805 1.591,-0.735 L 1.584,-0.619 C 0.925,-0.652 0.532,-0.488 0.284,-0.046 -0.093,0.626 0.167,1.33 1.347,1.993 2.607,2.699 3.462,2.738 3.851,2.044 4.15,1.512 3.94,0.901 3.314,0.483 L 3.371,0.382 4.592,1.157 4.539,1.252 C 4.353,1.177 4.272,1.176 4.231,1.249 4.153,1.389 4.262,1.745 4.008,2.198 3.49,3.122 2.216,3.305 1.007,2.626 -0.236,1.929 -0.44,0.784 0,0" />
          </g>
          <g
             id="g890"
             transform="translate(259.81,66.41)">
            <path
               id="path888"
               fill="#ffffff"
               d="m 0,0 -2.83,-0.984 c -0.45,-0.156 -0.591,-0.103 -0.73,0.317 l -0.103,-0.035 0.553,-1.589 0.102,0.036 c -0.133,0.382 -0.128,0.526 0.375,0.701 l 2.831,0.984 c 0.467,0.162 0.588,0.089 0.723,-0.32 L 1.024,-0.854 0.472,0.735 0.369,0.699 C 0.51,0.292 0.467,0.162 0,0" />
          </g>
          <g
             id="g894"
             transform="translate(261.22,63.095)">
            <path
               id="path892"
               fill="#ffffff"
               d="M 0,0 C 0.103,-0.704 -0.462,-1.092 -1.892,-1.301 -3.135,-1.483 -3.959,-1.39 -4.076,-0.596 -4.178,0.109 -3.612,0.496 -2.184,0.705 -0.851,0.9 -0.108,0.743 0,0 m -2.288,1.416 c -1.193,-0.175 -2.17,-0.94 -2.009,-2.045 0.169,-1.155 1.38,-1.549 2.51,-1.383 1.111,0.162 2.179,0.882 2.009,2.045 -0.17,1.161 -1.399,1.545 -2.51,1.383" />
          </g>
        </g>
        <g
           id="g1150"
           fill="#a0834a">
          <g
             id="g900"
             transform="translate(265.02,44.239)">
            <path
               style="fill:#a28349;fill-opacity:1"
               id="path898"
               fill="#a0834a"
               d="m 0,0 c 0.713,0.472 0.848,0.619 0.848,0.619 0,0 -0.807,0.525 -2.813,-0.054 0,0 -1.211,-0.309 -2.517,-1.426 -1.305,-1.118 -3.364,-2.612 -5.087,-3.177 0,0 1.561,-0.35 4.186,0.741 C -2.759,-2.207 -0.714,-0.47 0,0" />
          </g>
          <g
             id="g904"
             transform="translate(252.35,39.969)">
            <path
               style="fill:#a28349;fill-opacity:1"
               id="path902"
               fill="#a0834a"
               d="M 0,0 C -3.069,0.504 -6.874,-2.234 -6.874,-2.234 -1.889,-2.522 0,0 0,0" />
          </g>
          <g
             id="g908"
             transform="translate(259.32,44.686)">
            <path
               style="fill:#a28349;fill-opacity:1"
               id="path906"
               fill="#a0834a"
               d="m 0,0 c 0,0 -2.606,-0.041 -5.138,-4.571 0,0 3.419,0.723 5.138,4.571" />
          </g>
          <g
             id="g912"
             transform="translate(252.54,36.705)">
            <path
               style="fill:#a28349;fill-opacity:1"
               id="path910"
               fill="#a0834a"
               d="m 0,0 c 3.408,0.535 6.183,1.364 6.183,1.364 0,0 -0.822,1.089 -3.311,0.893 C 0.383,2.06 -0.973,1.275 -1.829,1.026 -2.685,0.775 -4.452,0.473 -5.005,0.463 -5.005,0.463 -3.408,-0.536 0,0" />
          </g>
          <g
             id="g916"
             transform="translate(255.95,79.56)">
            <path
               style="fill:#a28349;fill-opacity:1"
               id="path914"
               fill="#a0834a"
               d="M 0,0 C 1.999,-3.022 5.905,-3.673 5.905,-3.673 3.72,-0.093 0,0 0,0" />
          </g>
          <g
             id="g920"
             transform="translate(268.13,78.663)">
            <path
               style="fill:#a28349;fill-opacity:1"
               id="path918"
               fill="#a0834a"
               d="m 0,0 c 0,0 -1.903,-2.693 -0.969,-6.297 0,0 2.154,2.299 0.969,6.297" />
          </g>
          <g
             id="g924"
             transform="translate(264.06,82.397)">
            <path
               style="fill:#a28349;fill-opacity:1"
               id="path922"
               fill="#a0834a"
               d="m 0,0 c 0,0 -0.465,-3.348 2.301,-6.603 0,0 0.071,4.279 -2.301,6.603" />
          </g>
          <g
             id="g928"
             transform="translate(267.83,67.422)">
            <path
               style="fill:#a28349;fill-opacity:1"
               id="path926"
               fill="#a0834a"
               d="m 0,0 c 0.324,-1.711 0.706,-4.633 0.647,-5.195 0,0 1.58,1.831 0.982,6.356 -0.39,2.943 -0.468,4.022 -0.42,4.298 0,0 -0.946,-0.228 -1.365,-2.682 0,0 -0.168,-1.065 0.156,-2.777" />
          </g>
          <g
             id="g932"
             transform="translate(261.06,45.122)">
            <path
               style="fill:#a28349;fill-opacity:1"
               id="path930"
               fill="#a0834a"
               d="M 0,0 C 0,0 2.876,1.988 3.139,6.487 3.139,6.487 0.645,5.143 0,0" />
          </g>
          <g
             id="g936"
             transform="translate(271.03,62.995)">
            <path
               style="fill:#a28349;fill-opacity:1"
               id="path934"
               fill="#a0834a"
               d="m 0,0 c 0,0 -1.29,-0.453 -2.04,-1.744 -0.75,-1.29 -1.082,-3.399 -1.343,-4.69 -0.262,-1.291 -0.872,-3.069 -0.872,-3.069 0,0 2.023,1.813 2.738,3.958 C -0.802,-3.401 -0.174,-0.436 0,0" />
          </g>
          <g
             id="g940"
             transform="translate(273.7,63.1)">
            <path
               style="fill:#a28349;fill-opacity:1"
               id="path938"
               fill="#a0834a"
               d="m 0,0 c 0,0 -2.633,-0.906 -3.627,-6.015 0,0 3.296,2.806 3.627,6.015" />
          </g>
          <g
             id="g944"
             transform="translate(266.49,68.596)">
            <path
               style="fill:#a28349;fill-opacity:1"
               id="path942"
               fill="#a0834a"
               d="M 0,0 C -1.065,4.333 -4.309,5.674 -4.309,5.674 -4.178,2.777 0,0 0,0" />
          </g>
          <g
             id="g948"
             transform="translate(270.48,67.937)">
            <path
               style="fill:#a28349;fill-opacity:1"
               id="path946"
               fill="#a0834a"
               d="m 0,0 c 0,0 1.413,3.172 0.06,7.302 0,0 -1.042,-1.101 -0.91,-3.794 C -0.718,0.814 0,0 0,0" />
          </g>
          <g
             id="g952"
             transform="translate(270.17,63.998)">
            <path
               style="fill:#a28349;fill-opacity:1"
               id="path950"
               fill="#a0834a"
               d="M 0,0 C 3.591,4.178 2.227,5.878 2.227,5.878 -0.203,3.435 0,0 0,0" />
          </g>
          <g
             id="g956"
             transform="translate(266.41,70.144)">
            <path
               style="fill:#a28349;fill-opacity:1"
               id="path954"
               fill="#a0834a"
               d="m 0,0 c 0,0 0.511,0.86 -0.233,3.511 -0.744,2.65 -2.045,4.441 -2.627,5.161 -0.581,0.721 -0.674,1.512 -0.674,1.512 0,0 -1.092,-2.535 0.698,-5.116 C -1.046,2.488 -0.279,1.302 0,0" />
          </g>
          <g
             id="g960"
             transform="translate(266.76,48.818)">
            <path
               style="fill:#a28349;fill-opacity:1"
               id="path958"
               fill="#a0834a"
               d="m 0,0 c 0,0 0.89,0.872 1.727,2.285 0.836,1.412 1.551,2.371 1.778,2.528 0,0 -1.15,0.418 -3.243,-1.483 -2.093,-1.9 -1.587,-3.574 -4.412,-6.225 0,0 1.709,0.192 4.15,2.895" />
          </g>
          <g
             id="g964"
             transform="translate(249.71,84.968)">
            <path
               style="fill:#a28349;fill-opacity:1"
               id="path962"
               fill="#a0834a"
               d="M 0,0 C 0.097,0.348 0.166,0.554 0.286,0.831 0.639,1.022 0.954,1.073 1.252,0.99 1.888,0.812 2.051,-0.102 1.679,-1.434 1.42,-2.358 0.975,-2.802 0.438,-2.652 -0.258,-2.457 -0.417,-1.491 0,0 m 0.227,-2.947 c 1.204,-0.336 2.189,0.814 2.52,1.998 C 3.044,0.114 2.61,1.093 1.735,1.337 1.297,1.46 0.862,1.399 0.453,1.16 L 0.439,1.185 c 0.8,1.598 2.112,2.496 3.327,2.243 L 3.817,3.607 C 2.147,4.191 -0.16,2.993 -0.88,0.417 -1.352,-1.273 -0.906,-2.63 0.227,-2.947" />
          </g>
          <g
             id="g968"
             transform="translate(265.63,52.655)">
            <path
               style="fill:#a28349;fill-opacity:1"
               id="path966"
               fill="#a0834a"
               d="M 0,0 C 0,0 2.127,3.173 0.82,6.574 0.82,6.574 -1.221,4.429 0,0" />
          </g>
          <g
             id="g972"
             transform="translate(260.16,85.792)">
            <path
               style="fill:#a28349;fill-opacity:1"
               id="path970"
               fill="#a0834a"
               d="m 0,0 c 0,0 -1.093,-2.465 1.558,-6.464 0,0 0.628,3.86 -1.558,6.464" />
          </g>
          <g
             id="g976"
             transform="translate(245.92,85.996)">
            <path
               style="fill:#a28349;fill-opacity:1"
               id="path974"
               fill="#a0834a"
               d="M 0,0 C -0.658,0.055 -0.99,0.921 -0.876,2.299 -0.796,3.256 -0.442,3.776 0.113,3.73 0.833,3.669 1.161,2.752 1.032,1.208 1.002,0.838 0.985,0.633 0.919,0.337 0.608,0.084 0.308,-0.026 0,0 M 0.379,-2.29 C 1.393,-1.432 1.894,-0.261 1.996,0.963 2.141,2.711 1.438,3.961 0.265,4.059 -0.959,4.16 -1.728,2.888 -1.833,1.623 c -0.091,-1.1 0.519,-1.979 1.424,-2.055 0.453,-0.037 0.868,0.104 1.225,0.415 l 0.02,-0.022 C 0.35,-1.769 -0.768,-2.888 -2.01,-2.868 l -0.015,-0.185 c 0.972,-0.143 1.746,0.207 2.404,0.763" />
          </g>
          <g
             id="g980"
             transform="translate(265.84,67.518)">
            <path
               style="fill:#a28349;fill-opacity:1"
               id="path978"
               fill="#a0834a"
               d="M 0,0 C -1.066,-2.538 1.653,-6.5 1.653,-6.5 2.43,-2.777 0,0 0,0" />
          </g>
          <g
             id="g984"
             transform="translate(261.32,77.491)">
            <path
               style="fill:#a28349;fill-opacity:1"
               id="path982"
               fill="#a0834a"
               d="m 0,0 c 0,0 -0.21,2.348 -2.255,4.046 -2.046,1.697 -4.278,3.557 -4.72,4.022 0,0 -0.535,-1.326 1.419,-3.302 C -3.604,2.79 -1.303,1.651 0,0" />
          </g>
          <g
             id="g988"
             transform="translate(259.41,82.258)">
            <path
               style="fill:#a28349;fill-opacity:1"
               id="path986"
               fill="#a0834a"
               d="m 0,0 c 0,0 -0.86,3.673 -4.65,5.557 0,0 0.512,-3 4.65,-5.557" />
          </g>
          <g
             id="g992"
             transform="translate(257.96,39.591)">
            <path
               style="fill:#a28349;fill-opacity:1"
               id="path990"
               fill="#a0834a"
               d="M 0,0 C 0,0 2.678,-1.565 6.949,-0.09 6.949,-0.09 4.346,1.651 0,0" />
          </g>
          <g
             id="g996"
             transform="translate(219.8,67.422)">
            <path
               style="fill:#a28349;fill-opacity:1"
               id="path994"
               fill="#a0834a"
               d="M 0,0 C 0.324,1.712 0.156,2.777 0.156,2.777 -0.263,5.231 -1.209,5.459 -1.209,5.459 -1.161,5.183 -1.239,4.104 -1.628,1.161 -2.227,-3.364 -0.647,-5.195 -0.647,-5.195 -0.706,-4.633 -0.324,-1.711 0,0" />
          </g>
          <g
             id="g1000"
             transform="translate(219.23,44.064)">
            <path
               style="fill:#a28349;fill-opacity:1"
               id="path998"
               fill="#a0834a"
               d="M 0,0 C 2.423,-2.813 6.904,-3.163 6.904,-3.163 3.593,0.364 0,0 0,0" />
          </g>
          <g
             id="g1004"
             transform="translate(226.22,37.086)">
            <path
               style="fill:#a28349;fill-opacity:1"
               id="path1002"
               fill="#a0834a"
               d="M 0,0 C 1.953,-1.904 7.703,-1.051 7.703,-1.051 2.36,1.209 0,0 0,0" />
          </g>
          <g
             id="g1008"
             transform="translate(229.67,39.591)">
            <path
               style="fill:#a28349;fill-opacity:1"
               id="path1006"
               fill="#a0834a"
               d="M 0,0 C -4.346,1.651 -6.95,-0.09 -6.95,-0.09 -2.677,-1.565 0,0 0,0" />
          </g>
          <g
             id="g1012"
             transform="translate(220.09,48.417)">
            <path
               style="fill:#a28349;fill-opacity:1"
               id="path1010"
               fill="#a0834a"
               d="M 0,0 C -1.936,4.569 -4.953,4.935 -4.953,4.935 -4.255,2.284 0,0 0,0" />
          </g>
          <g
             id="g1016"
             transform="translate(215.24,69.876)">
            <path
               style="fill:#a28349;fill-opacity:1"
               id="path1014"
               fill="#a0834a"
               d="M 0,0 C 0,0 -1.364,-1.7 2.227,-5.878 2.227,-5.878 2.43,-2.443 0,0" />
          </g>
          <g
             id="g1020"
             transform="translate(231.39,34.127)">
            <path
               style="fill:#a28349;fill-opacity:1"
               id="path1018"
               fill="#a0834a"
               d="M 0,0 C 0,0 3.479,-0.946 6.61,1.696 6.61,1.696 2.944,2.319 0,0" />
          </g>
          <g
             id="g1024"
             transform="translate(218.01,71.444)">
            <path
               style="fill:#a28349;fill-opacity:1"
               id="path1022"
               fill="#a0834a"
               d="m 0,0 c 0.132,2.693 -0.91,3.795 -0.91,3.795 -1.353,-4.13 0.06,-7.303 0.06,-7.303 0,0 0.718,0.815 0.85,3.508" />
          </g>
          <g
             id="g1028"
             transform="translate(213.31,58.67)">
            <path
               style="fill:#a28349;fill-opacity:1"
               id="path1026"
               fill="#a0834a"
               d="M 0,0 C 1.762,-3.278 5.44,-3.958 5.44,-3.958 3.034,-0.157 0,0 0,0" />
          </g>
          <g
             id="g1032"
             transform="translate(217.56,57.084)">
            <path
               style="fill:#a28349;fill-opacity:1"
               id="path1030"
               fill="#a0834a"
               d="M 0,0 C -0.995,5.109 -3.627,6.016 -3.627,6.016 -3.296,2.808 0,0 0,0" />
          </g>
          <g
             id="g1036"
             transform="translate(222.79,45.854)">
            <path
               style="fill:#a28349;fill-opacity:1"
               id="path1034"
               fill="#a0834a"
               d="M 0,0 C -2.65,2.755 -6.364,2.284 -6.364,2.284 -4.115,-0.279 0,0 0,0" />
          </g>
          <g
             id="g1040"
             transform="translate(267.54,48.417)">
            <path
               style="fill:#a28349;fill-opacity:1"
               id="path1038"
               fill="#a0834a"
               d="M 0,0 C 0,0 4.255,2.284 4.953,4.935 4.953,4.935 1.935,4.569 0,0" />
          </g>
          <g
             id="g1044"
             transform="translate(264.84,45.854)">
            <path
               style="fill:#a28349;fill-opacity:1"
               id="path1042"
               fill="#a0834a"
               d="M 0,0 C 0,0 4.115,-0.279 6.365,2.284 6.365,2.284 2.65,2.755 0,0" />
          </g>
          <g
             id="g1048"
             transform="translate(268.89,54.712)">
            <path
               style="fill:#a28349;fill-opacity:1"
               id="path1046"
               fill="#a0834a"
               d="M 0,0 C 0,0 3.679,0.68 5.441,3.958 5.441,3.958 2.406,3.802 0,0" />
          </g>
          <g
             id="g1052"
             transform="translate(261.5,40.902)">
            <path
               style="fill:#a28349;fill-opacity:1"
               id="path1050"
               fill="#a0834a"
               d="M 0,0 C 0,0 4.481,0.35 6.904,3.163 6.904,3.163 3.312,3.526 0,0" />
          </g>
          <g
             id="g1056"
             transform="translate(243.82,36.822)">
            <path
               style="fill:#a28349;fill-opacity:1"
               id="path1054"
               fill="#a0834a"
               d="M 0,0 C 0,0.001 0.001,0.004 0.001,0.004 0,0.004 -0.002,0.003 -0.003,0.002 c -0.002,0.001 -0.003,0.002 -0.004,0.002 0,0 0,-0.003 0.001,-0.004 -3.517,-1.966 -3.836,-5.675 -3.836,-5.675 2.774,0.956 3.771,5.344 3.839,5.66 0.068,-0.316 1.065,-4.704 3.838,-5.66 0,0 -0.319,3.709 -3.835,5.675" />
          </g>
          <g
             id="g1060"
             transform="translate(252.2,32.968)">
            <path
               style="fill:#a28349;fill-opacity:1"
               id="path1058"
               fill="#a0834a"
               d="m 0,0 c -1.064,0.941 -4.15,4.045 -8.3,4.133 0,0 1.377,-0.611 3.034,-2.11 1.656,-1.5 4.063,-3.872 7.115,-2.825 0,0 -0.785,-0.139 -1.849,0.802" />
          </g>
          <g
             id="g1064"
             transform="translate(243.74,37.101)">
            <path
               style="fill:#a28349;fill-opacity:1"
               id="path1062"
               fill="#a0834a"
               d="m 0,0 c -4.15,-0.087 -7.236,-3.191 -8.3,-4.133 -1.063,-0.941 -1.848,-0.802 -1.848,-0.802 3.051,-1.047 5.457,1.325 7.114,2.825 C -1.377,-0.61 0,0 0,0" />
          </g>
          <g
             id="g1068"
             transform="translate(253.71,36.035)">
            <path
               style="fill:#a28349;fill-opacity:1"
               id="path1066"
               fill="#a0834a"
               d="M 0,0 C 0,0 5.75,-0.853 7.703,1.051 7.703,1.051 5.345,2.26 0,0" />
          </g>
          <g
             id="g1072"
             transform="translate(249.63,35.822)">
            <path
               style="fill:#a28349;fill-opacity:1"
               id="path1070"
               fill="#a0834a"
               d="M 0,0 C 3.131,-2.642 6.61,-1.696 6.61,-1.696 3.667,0.625 0,0 0,0" />
          </g>
          <g
             id="g1076"
             transform="translate(242.16,37.736)">
            <path
               style="fill:#a28349;fill-opacity:1"
               id="path1074"
               fill="#a0834a"
               d="m 0,0 c 0,0 -3.805,2.738 -6.874,2.234 0,0 1.889,-2.522 6.874,-2.234" />
          </g>
          <g
             id="g1080"
             transform="translate(219.5,78.663)">
            <path
               style="fill:#a28349;fill-opacity:1"
               id="path1078"
               fill="#a0834a"
               d="M 0,0 C -1.185,-3.998 0.969,-6.297 0.969,-6.297 1.903,-2.693 0,0 0,0" />
          </g>
          <g
             id="g1084"
             transform="translate(222.62,44.239)">
            <path
               style="fill:#a28349;fill-opacity:1"
               id="path1082"
               fill="#a0834a"
               d="M 0,0 C 0.714,-0.47 2.759,-2.207 5.383,-3.297 8.007,-4.388 9.569,-4.038 9.569,-4.038 7.846,-3.473 5.787,-1.979 4.482,-0.861 3.176,0.256 1.965,0.565 1.965,0.565 -0.041,1.144 -0.848,0.619 -0.848,0.619 -0.848,0.619 -0.714,0.472 0,0" />
          </g>
          <g
             id="g1088"
             transform="translate(228.91,38.07)">
            <path
               style="fill:#a28349;fill-opacity:1"
               id="path1086"
               fill="#a0834a"
               d="M 0,0 C 0,0 2.775,-0.829 6.183,-1.364 9.59,-1.9 11.187,-0.901 11.187,-0.901 10.633,-0.892 8.868,-0.589 8.012,-0.339 7.154,-0.089 5.798,0.696 3.309,0.893 0.821,1.089 0,0 0,0" />
          </g>
          <g
             id="g1092"
             transform="translate(226.58,45.122)">
            <path
               style="fill:#a28349;fill-opacity:1"
               id="path1090"
               fill="#a0834a"
               d="M 0,0 C -0.646,5.143 -3.139,6.487 -3.139,6.487 -2.878,1.988 0,0 0,0" />
          </g>
          <g
             id="g1096"
             transform="translate(220.14,61.018)">
            <path
               style="fill:#a28349;fill-opacity:1"
               id="path1094"
               fill="#a0834a"
               d="M 0,0 C 0,0 2.717,3.962 1.652,6.5 1.652,6.5 -0.779,3.723 0,0" />
          </g>
          <g
             id="g1100"
             transform="translate(217.37,53.631)">
            <path
               style="fill:#a28349;fill-opacity:1"
               id="path1098"
               fill="#a0834a"
               d="M 0,0 C 0.226,-0.157 0.941,-1.116 1.778,-2.529 2.616,-3.941 3.505,-4.813 3.505,-4.813 5.946,-7.516 7.655,-7.708 7.655,-7.708 4.83,-5.057 5.336,-3.383 3.243,-1.482 1.151,0.418 0,0 0,0" />
          </g>
          <g
             id="g1104"
             transform="translate(222.01,52.655)">
            <path
               style="fill:#a28349;fill-opacity:1"
               id="path1102"
               fill="#a0834a"
               d="M 0,0 C 1.221,4.429 -0.82,6.574 -0.82,6.574 -2.127,3.173 0,0 0,0" />
          </g>
          <g
             id="g1108"
             transform="translate(240.67,89.706)">
            <path
               style="fill:#a28349;fill-opacity:1"
               id="path1106"
               fill="#a0834a"
               d="M 0,0 C 0.575,0.061 1.027,-0.391 1.101,-1.099 1.168,-1.735 0.965,-2.276 0.463,-2.734 -0.475,-2.105 -0.788,-1.598 -0.836,-1.136 -0.9,-0.53 -0.554,-0.058 0,0 m 1.731,-5.424 c 0.067,-0.637 -0.304,-1.153 -0.879,-1.214 -0.708,-0.074 -1.215,0.496 -1.316,1.461 -0.076,0.719 0.089,1.235 0.523,1.643 1.226,-0.795 1.603,-1.223 1.672,-1.89 m -1.922,2.093 c -0.746,-0.702 -1.071,-1.369 -0.996,-2.078 0.103,-0.986 0.952,-1.654 1.969,-1.547 1.006,0.104 1.704,0.977 1.597,1.994 -0.083,0.791 -0.537,1.356 -1.636,2.039 0.838,0.712 1.136,1.241 1.071,1.857 -0.07,0.668 -0.694,1.464 -1.781,1.35 -1.017,-0.107 -1.646,-0.848 -1.544,-1.813 0.07,-0.668 0.458,-1.198 1.32,-1.802" />
          </g>
          <g
             id="g1112"
             transform="translate(218.64,61.251)">
            <path
               style="fill:#a28349;fill-opacity:1"
               id="path1110"
               fill="#a0834a"
               d="m 0,0 c -0.749,1.29 -2.04,1.744 -2.04,1.744 0.175,-0.436 0.802,-3.401 1.517,-5.546 0.715,-2.144 2.737,-3.958 2.737,-3.958 0,0 -0.61,1.779 -0.872,3.069 C 1.081,-3.4 0.749,-1.29 0,0" />
          </g>
          <g
             id="g1116"
             transform="translate(228.31,44.686)">
            <path
               style="fill:#a28349;fill-opacity:1"
               id="path1114"
               fill="#a0834a"
               d="M 0,0 C 1.719,-3.848 5.138,-4.571 5.138,-4.571 2.606,-0.041 0,0 0,0" />
          </g>
          <g
             id="g1120"
             transform="translate(231.69,79.56)">
            <path
               style="fill:#a28349;fill-opacity:1"
               id="path1118"
               fill="#a0834a"
               d="m 0,0 c 0,0 -3.72,-0.093 -5.905,-3.673 0,0 3.906,0.651 5.905,3.673" />
          </g>
          <g
             id="g1124"
             transform="translate(227.48,85.792)">
            <path
               style="fill:#a28349;fill-opacity:1"
               id="path1122"
               fill="#a0834a"
               d="M 0,0 C -2.186,-2.604 -1.557,-6.464 -1.557,-6.464 1.093,-2.465 0,0 0,0" />
          </g>
          <g
             id="g1128"
             transform="translate(221.14,68.596)">
            <path
               style="fill:#a28349;fill-opacity:1"
               id="path1126"
               fill="#a0834a"
               d="M 0,0 C 0,0 4.178,2.777 4.309,5.674 4.309,5.674 1.066,4.333 0,0" />
          </g>
          <g
             id="g1132"
             transform="translate(224.06,75.213)">
            <path
               style="fill:#a28349;fill-opacity:1"
               id="path1130"
               fill="#a0834a"
               d="m 0,0 c 1.79,2.581 0.698,5.115 0.698,5.115 0,0 -0.093,-0.79 -0.675,-1.511 C -0.558,2.883 -1.86,1.093 -2.604,-1.558 -3.348,-4.209 -2.836,-5.069 -2.836,-5.069 -2.557,-3.766 -1.79,-2.581 0,0" />
          </g>
          <g
             id="g1136"
             transform="translate(223.57,82.397)">
            <path
               style="fill:#a28349;fill-opacity:1"
               id="path1134"
               fill="#a0834a"
               d="M 0,0 C -2.372,-2.324 -2.301,-6.603 -2.301,-6.603 0.464,-3.348 0,0 0,0" />
          </g>
          <g
             id="g1140"
             transform="translate(232.87,87.814)">
            <path
               style="fill:#a28349;fill-opacity:1"
               id="path1138"
               fill="#a0834a"
               d="M 0,0 C -3.789,-1.883 -4.65,-5.557 -4.65,-5.557 -0.511,-2.999 0,0 0,0" />
          </g>
          <g
             id="g1144"
             transform="translate(234.75,87.855)">
            <path
               style="fill:#a28349;fill-opacity:1"
               id="path1142"
               fill="#a0834a"
               d="M 0,0 C 0.227,0.069 0.373,-0.091 0.517,-0.566 L 1.873,-5.029 C 2.019,-5.513 1.926,-5.812 1.436,-5.971 l 0.051,-0.168 2.172,0.659 -0.051,0.169 c -0.494,-0.151 -0.75,0.02 -0.913,0.553 L 0.9,1.158 0.731,1.107 -0.415,-0.126 -0.301,-0.253 C -0.233,-0.157 -0.109,-0.033 0,0" />
          </g>
          <g
             id="g1148"
             transform="translate(231.87,82.258)">
            <path
               style="fill:#a28349;fill-opacity:1"
               id="path1146"
               fill="#a0834a"
               d="M 0,0 C 1.953,1.976 1.418,3.301 1.418,3.301 0.977,2.837 -1.255,0.977 -3.301,-0.721 -5.348,-2.418 -5.556,-4.766 -5.556,-4.766 -4.255,-3.116 -1.953,-1.975 0,0" />
          </g>
        </g>
        <g
           id="g1154"
           fill="#ff00ff"
           transform="translate(243.78,80.494)">
          <path
             id="path1152"
             fill="#ffffff"
             d="m 0,0 c 11,0 19.958,-8.958 19.958,-19.97 0,-4.595 -1.561,-8.834 -4.18,-12.213 L 8.942,-22.9 c 0.069,0.677 0.05,1.078 0.05,1.078 v 11.05 H 0.01 l 8.929,-12.12 C 8.938,-22.907 8.936,-22.924 8.934,-22.94 8.928,-22.998 8.922,-23.057 8.915,-23.118 8.914,-23.124 8.913,-23.13 8.912,-23.137 8.903,-23.208 8.894,-23.282 8.883,-23.359 8.882,-23.365 8.881,-23.371 8.88,-23.379 8.846,-23.622 8.801,-23.889 8.741,-24.176 8.74,-24.183 8.738,-24.188 8.737,-24.193 8.718,-24.286 8.697,-24.382 8.675,-24.478 8.673,-24.484 8.672,-24.492 8.67,-24.498 8.648,-24.594 8.624,-24.693 8.598,-24.793 8.596,-24.801 8.594,-24.809 8.591,-24.818 8.566,-24.917 8.54,-25.017 8.51,-25.119 8.505,-25.139 8.499,-25.16 8.494,-25.18 8.466,-25.271 8.44,-25.363 8.412,-25.458 8.404,-25.483 8.395,-25.509 8.387,-25.533 8.358,-25.624 8.33,-25.715 8.3,-25.807 8.29,-25.833 8.281,-25.86 8.271,-25.887 8.24,-25.979 8.209,-26.071 8.174,-26.165 c -0.015,-0.041 -0.032,-0.084 -0.047,-0.126 -0.031,-0.08 -0.06,-0.16 -0.092,-0.241 -0.021,-0.053 -0.044,-0.109 -0.068,-0.162 -0.028,-0.072 -0.056,-0.142 -0.086,-0.214 -0.025,-0.058 -0.052,-0.117 -0.078,-0.175 -0.03,-0.069 -0.059,-0.138 -0.091,-0.207 -0.042,-0.091 -0.087,-0.183 -0.131,-0.275 -0.019,-0.038 -0.036,-0.076 -0.055,-0.114 -0.064,-0.13 -0.132,-0.261 -0.202,-0.393 l -7.312,9.924 -0.003,0.003 -7.297,-9.927 c -0.002,10e-4 -0.002,10e-4 -0.003,0.002 -0.067,0.124 -0.13,0.248 -0.191,0.371 -0.019,0.038 -0.038,0.077 -0.057,0.116 -0.041,0.084 -0.082,0.168 -0.12,0.251 -0.022,0.046 -0.042,0.09 -0.062,0.136 -0.035,0.076 -0.069,0.152 -0.102,0.227 -0.02,0.047 -0.04,0.093 -0.059,0.139 -0.031,0.074 -0.061,0.147 -0.091,0.219 -0.018,0.047 -0.036,0.092 -0.054,0.138 -0.029,0.073 -0.057,0.147 -0.084,0.22 -0.016,0.042 -0.032,0.085 -0.046,0.126 -0.03,0.081 -0.058,0.161 -0.085,0.24 -0.011,0.033 -0.022,0.066 -0.033,0.097 -0.036,0.11 -0.072,0.219 -0.104,0.326 -0.008,0.024 -0.014,0.048 -0.021,0.071 -0.026,0.083 -0.05,0.166 -0.073,0.246 -0.011,0.042 -0.023,0.082 -0.033,0.123 -0.017,0.062 -0.034,0.125 -0.049,0.185 -0.012,0.044 -0.024,0.088 -0.034,0.133 -0.014,0.055 -0.027,0.11 -0.04,0.164 -0.01,0.045 -0.021,0.09 -0.031,0.134 -0.011,0.05 -0.022,0.102 -0.033,0.152 -0.009,0.044 -0.019,0.088 -0.027,0.131 -0.011,0.048 -0.019,0.094 -0.028,0.142 -0.009,0.043 -0.017,0.086 -0.024,0.127 -0.009,0.045 -0.016,0.089 -0.023,0.131 -0.02,0.121 -0.04,0.238 -0.056,0.349 l 0.001,-10e-4 c -0.025,0.172 -0.045,0.334 -0.061,0.481 l -6.852,-9.31 c -2.631,3.383 -4.198,7.629 -4.198,12.236 C -19.961,-8.958 -11.003,0 0,0 m 0,-39.941 c -4.807,0 -9.224,1.711 -12.674,4.555 l 5.38,7.311 c 0.379,-0.706 0.842,-1.434 1.411,-2.161 2.708,-3.454 5.895,-4.733 5.895,-4.733 0,0 3.199,1.279 5.902,4.733 0.568,0.726 1.031,1.453 1.41,2.158 l 5.368,-7.291 C 9.239,-38.224 4.815,-39.941 0,-39.941 m -20.392,19.972 c 0,-11.261 9.151,-20.421 20.404,-20.421 11.26,0 20.416,9.16 20.416,20.421 0,11.262 -9.156,20.418 -20.416,20.418 -11.253,0 -20.404,-9.156 -20.404,-20.418" />
        </g>
        <g
           id="g1158"
           fill="#ffffff"
           transform="translate(234.82,69.722)">
          <path
             id="path1156"
             fill="#ffffff"
             d="m 0,0 v -11.051 c 0,0 -0.019,-0.397 0.049,-1.069 L 8.967,0 H 6.529 Z" />
        </g>
      </g>
    </g>
  </g>
</svg>
