<?xml version="1.0" encoding="UTF-8" standalone="no"?><svg height="1037.409" width="504.012" xmlns="http://www.w3.org/2000/svg"><g fill="#132257"><path d="M150.24 652.074a9.466 9.466 0 0 0-8.802 3.522 32.477 32.477 0 0 0-7.77 24.275v-.009a18.107 18.107 0 0 0 1.201 6.085 10.05 10.05 0 0 0 6.683 6.49 9.78 9.78 0 0 0 8.61-4.467 34.192 34.192 0 0 0 5.87-29.604 8.557 8.557 0 0 0-5.791-6.292M355.978 741.9a24.218 24.218 0 0 0-2.093-17.218 17.664 17.664 0 0 0-11.217-8.57l-5.065-1.067a460.593 460.593 0 0 1-22.002-4.947c-13.96-3.491-25.94 2.906-32.554 17.165a603.61 603.61 0 0 0 20.028 5.461 67.578 67.578 0 0 0 1.28-8.666 4 4 0 0 1 7.984.466 75.915 75.915 0 0 1-1.486 10.095c1.293.304 2.58.607 3.856.897 1.31.295 2.598.58 3.865.849 1.143-5.62 1.868-10.399 1.886-10.491a4 4 0 0 1 7.91 1.2c-.062.383-.796 5.167-1.974 10.9 2.686.519 5.219.98 7.628 1.385a75.46 75.46 0 0 0 1.108-8.767 3.997 3.997 0 0 1 7.985.382 79.965 79.965 0 0 1-1.174 9.59c5.536.752 10.187 1.16 14.035 1.336m-74.056 9.775a22.986 22.986 0 0 0 12.601 12.038 184.725 184.725 0 0 0 30.77 6.024c12.68 1.402 22.594-5.659 28.258-19.931-4.243-.242-8.794-.734-13.49-1.394a41.28 41.28 0 0 1-3.46 8.275 3.998 3.998 0 0 1-6.947-3.957 30.95 30.95 0 0 0 2.41-5.575 319.692 319.692 0 0 1-7.445-1.372 60.997 60.997 0 0 1-2.84 8.824 3.999 3.999 0 1 1-7.33-3.2 51.75 51.75 0 0 0 2.34-7.238c-1.289-.29-2.581-.571-3.848-.857-1.35-.308-2.717-.629-4.089-.95a75.123 75.123 0 0 1-2.607 7.158 3.993 3.993 0 1 1-7.356-3.108 68.937 68.937 0 0 0 2.176-5.954 606.576 606.576 0 0 1-20.673-5.65 25.69 25.69 0 0 0 1.53 16.867m88.952-101.827c-6.045-15.864-26.275-27.102-52.933-33.135-49.258-11.141-113.984 7.26-155.165 41.902a39.71 39.71 0 0 1-1.016 20.736 671.76 671.76 0 0 0 113.549 45.613c9.576-22.002 27.929-26.197 42.231-22.622a443.457 443.457 0 0 0 21.655 4.867l5.294 1.122a25.697 25.697 0 0 1 16.347 12.399 31.571 31.571 0 0 1 3.267 21.18 14.528 14.528 0 0 0 7.993-1.803 132.088 132.088 0 0 0-1.222-90.259m-46.461 127.834a190.41 190.41 0 0 1-32.502-6.42 30.89 30.89 0 0 1-17.244-16.22 32.659 32.659 0 0 1-3.008-12.469 36.02 36.02 0 0 1 1.056-10.055 684.852 684.852 0 0 1-114.041-45.767 32.731 32.731 0 0 1-3.623 5.342 20.416 20.416 0 0 1-7.427 5.73 165.18 165.18 0 0 0 25.361 70.894c18.348 28.337 43.34 47.758 70.341 53.866 9.572 2.163 22.085 4.854 33.271 2.374a131.613 131.613 0 0 0 91.88-75.661 47.83 47.83 0 0 1-6.45.624c-9.47 27.705-29.383 28.672-37.614 27.762M131.663 660.74a34.03 34.03 0 0 1 5.075-8.323 22.037 22.037 0 0 1 5.197-4.573 118.983 118.983 0 0 1 30.03-58.42 131.953 131.953 0 0 0-48.339 64.646 41.243 41.243 0 0 0 8.038 6.67m-2.541 7.76a75.866 75.866 0 0 1-7.972-6.34 131.296 131.296 0 0 0-4.463 39.84 135 135 0 0 0 .594 8.27 84.21 84.21 0 0 1 11.502-25.347 39.323 39.323 0 0 1 .339-16.422m10.53 30.06a12.825 12.825 0 0 1-7.334-5.214c-9.8 15.103-13.925 28.61-10.328 40.741a131.57 131.57 0 0 0 113.693 93.429c-51.372-15.6-89.383-69.123-96.031-128.955M202.91 75.986a85.503 85.503 0 0 0-2.216-19.909s11.82-.62 11.82-15.01c0-11.854-7.91-19.945-10.035-19.945-1.714 0-2.132 1.812-5.839 1.812-9.035 0-9.699-11.537-9.699-11.537q2.005-.073 4.124-.07c25.858 0 49.786 7.834 49.786 64.66a513.362 513.362 0 0 1-3.746 56.209 339.94 339.94 0 0 0-2.876 46.241s-45.028-5.302-45.028-39.176c0-21.993 13.71-27.344 13.71-63.275m71.61 375.359c0 44.47-18.967 80.63-29.929 91.59-33.952 33.957-61.973 9.23-62.276 43.305-15.407 13.956-26.491 35.175-31.93 59.41a9.528 9.528 0 0 1 1.002.14 12.674 12.674 0 0 1 8.024 5.277c43.129-35.153 109.539-53.628 160.296-42.153a89.872 89.872 0 0 1 40.192 18.722 131.933 131.933 0 0 0-67.575-54.767c-6.692-2.396-18.573-5.144-18.573-26.834 0-40.486 44.294-9.009 73.472-53.11 1.433-2.167-.63-4.075-2.34-2.365-8.828 8.825-30.505 14.892-41.976 14.892a33.462 33.462 0 0 1-15.798-2.611 315.769 315.769 0 0 1 24.332-39.92c-27.084-27.093 18.506-176.04 139.16-176.04a377.87 377.87 0 0 0-8.086-81.544c-2.87.695-25.602 6.059-26.64 1.275-.915-4.23 16.743-13.41 22.82-16.427a135.529 135.529 0 0 0-11.832-30.338c-103.414 32.585-82.63 118.205-107.824 118.205-16.396 0-29.274-12.768-33.873-17.368C223.4 198.926 252.18 158.058 252.18 75.986 252.181 20.7 230.711 0 191.065 0c-39.655 0-53.813 17.16-53.813 17.16s54.328 1.76 54.328 58.826c0 59.736-67.276 76.224-67.276 152.008 0 126.154 150.218 123.789 150.218 223.35M46.857 811.645c10.082 6.652 20.762 12.623 20.762 12.623l-3.742 9.69c-1.393-5.865-7.21-9.052-14.73-13.7l-24.59 35.566a66.948 66.948 0 0 0-9.326 17.333s-4.032-2.568-7.721-5.312C3.654 864.98 0 862.323 0 862.323c3.667-.901 9.998-10.236 13.81-15.407l23.933-34.146c-8.966-6.92-12.466-8.279-18.797-8.604l8.517-6.389s8.187 6.472 19.394 13.868M90.947 840.837c-10.922-5.206-19.518 7.127-25.994 20.691-6.477 13.564-10.71 28.096.21 33.31 10.927 5.206 19.562-7.22 26.035-20.779 6.48-13.56 10.67-27.999-.251-33.222m-28.175 59.018c-17.086-8.16-19.346-26.974-10.94-44.592 8.451-17.698 24.553-27.648 41.55-19.522 17.003 8.107 19.395 26.882 10.94 44.588-8.407 17.61-24.468 27.682-41.55 19.526M139.216 853.925a514.348 514.348 0 0 0 20.955 5.448l-1.007 10.337c-3.095-4.467-4.511-5.562-14.373-8.077l-11.947 40.205c-.967 3.676-5.737 17.592-4.207 20.212 0 0-3.324-.703-8.684-2.19-6.02-1.67-8.85-2.8-8.85-2.8 3.081-2.036 6.977-13.938 8.243-18.775l12.017-40.464c-10.214-3.403-12.588-3.645-17.473-1.372l5.922-8.82s6.67 2.695 19.404 6.296M186.874 864.605c11.388 1.72 22.112 2.696 22.112 2.696l.418 10.372c-4.243-3.782-5.844-5.008-17.09-6.424l-6.508 41.282c-.457 3.772-2.88 18.128-1.003 20.516 0 0-3.94-.431-9.387-1.2-5.448-.77-8.794-1.53-8.794-1.53 2.66-2.085 4.868-15.684 5.33-19.461l6.67-41.801c-9.74-1.943-11.745-1.192-16.418 1.517l4.234-9.814s9.101 2.137 20.436 3.847M229.091 903.85l-.861 27.74c14.54.189 24.503-.726 28.94-7.035l-2.225 12.596s-8.055.172-19.848 0c-12.979-.184-23.149-1.024-23.149-1.024 2.155-2.141 2.695-15.653 2.722-19.465l1.182-27.22c.049-7.251.713-18.964-1.719-21.43 10.535.729 9.194.716 18.872 1.094 12.667.501 19.851.123 19.851.123l1.588 10.403c-4.951-4.124-12.36-4.6-24.464-4.674l-.669 23.277 18.59.11c1.68.018 1.79.954 1.776 2.814-.017 1.838-.044 2.823-1.811 2.8zM310.316 912.203c1.072 10.096 2.132 17.346 4.432 18.67a6.488 6.488 0 0 1-4.824 2.668 8.074 8.074 0 0 1-7.14-3.464l-32.968-37.818 1.236 24.055c.404 3.786.835 18.129 3.196 20.032l-10.992.506c1.913-2.361 1.403-16.026.998-19.812l-1.552-27.16c-.409-3.785-1.112-18.796-3.482-20.7l10.077-.365L303.1 908.95l-2.818-23.097c-.4-3.79-2.458-17.557-4.731-19.474 0 0 1.21-.11 5.311-.663 4.098-.559 5.593-.858 5.593-.858-1.908 2.37.304 16.48.704 20.274zM372.269 897.894c1.165 4.691 3.487 16.756 6.943 19.117 0 0-5.224 1.504-8.398 2.485-2.84.879-9.097 2.493-9.097 2.493 1.477-2.603-1.816-17.073-2.722-20.692L355.86 888.7l-20.955 5.14 2.383 12.812c.686 4.142 2.87 18.076 5.694 19.773 0 0-2.924.611-9.036 1.86-5.122 1.046-8.67 1.61-8.67 1.61 1.56-2.604-.541-15.526-1.196-19.646l-5.074-27.08c-.924-5.048-3.254-17.82-6.05-19.311 0 0 2.704-.519 8.692-1.68 5.989-1.165 8.917-1.956 8.917-1.956-1.469 3.03 1.13 15.279 1.838 19.574l1.613 8.592 20.617-5.021-2.229-8.785c-1.21-4.643-3.773-15.811-6.64-17.882 0 0 2.837-.822 8.575-2.445 5.737-1.622 8.213-2.546 8.213-2.546-1.143 3.091 2.049 13.965 3.368 19.57zM406.84 877.43l-18.173-25.167 1.284 31.614zm3.71 4.407-20.45 8.006.713 11.225a45.706 45.706 0 0 0 1.306 9.335 3.981 3.981 0 0 0 1.79 1.996s-2.124.774-5.637 1.913c-3.51 1.138-5.444 1.692-5.444 1.692a16.458 16.458 0 0 0 1.412-8.648l-1.794-53.228a18.117 18.117 0 0 0-1.051-5.272 7.005 7.005 0 0 0-2.19-2.678 54.124 54.124 0 0 1 8.2-4.414c4.7-1.979 6.67-1.895 10.096 2.101l30.004 37.202c5.456 7.101 10.266 11.88 13.406 12.83 0 0-3.065 1.42-8.82 3.984-5.774 2.563-9.586 4.014-9.586 4.014a6.44 6.44 0 0 0-.369-4.401 57.73 57.73 0 0 0-5.659-8.236zM496.212 862.54a936.353 936.353 0 0 0-7.188 4.898c-.308-4.05-8.117-14.057-10.417-17.086L460.99 827.36l14.167 45.318a11.336 11.336 0 0 1-2.484 2.862 5.998 5.998 0 0 1-8.007-.246l-33.548-27.819 11.74 21.633c2.875 5.478 8.41 16.875 12.13 17.996 0 0-2.303 1.24-5.236 2.664-2.915 1.403-4.691 2.23-4.691 2.23.641-3.18-4.802-12.641-7.98-18.691l-13.073-24.579c-3.961-7.395-8.327-14.927-12.09-16.43 2.91-1.412 3.785-1.847 7.94-3.888 3.465-1.71 6.516-3.385 6.516-3.385l37.782 32.14-14.861-45.502s1.996-1.35 5.764-3.87c3.768-2.523 7.176-5.03 7.176-5.03.281 4.076 8.138 14.444 11.005 18.155l16.273 20.938c3.456 4.3 9.901 13.885 14.5 14.989 0 0-3.689 2.92-7.8 5.694M109.61 945.278c3.5 1.28 8.02 2.849 8.02 2.849-3.804 2.757-7.308 13.731-9.568 19.689l-8.772 24.34c-2.352 6.605-6.353 16.177-5.012 19.593 0 0-4.828-1.666-8.737-3.056-3.337-1.187-5.232-1.829-8.776-3.337 4.304-1.134 8.363-15.442 9.673-19.038l4.019-11.357-21.026-8.772-6.08 12.993c-1.98 4.515-6.715 14.73-5.594 17.939 0 0-3.706-1.521-9.15-4.019-6.401-2.946-7.8-3.737-7.8-3.737 4.516-2.216 7.18-9.493 10.619-16.853l11-24.354c3.716-8.328 7.071-15.556 6.82-20.314 0 0 1.961 1.174 7.37 3.606 4.308 1.939 6.507 2.902 8.925 3.869-3.425 1.367-8.182 13.656-10.702 19.166l-3.218 6.89 20.542 8.45 3.152-7.804c1.469-3.98 6.56-15.881 5.465-19.966 0 0 4.217 1.534 8.83 3.223M149.64 962.386c-11.7-3.083-17.75 10.34-21.496 24.565-3.746 14.22-5.1 28.975 6.608 32.057 11.7 3.082 17.777-10.438 21.518-24.653 3.747-14.228 5.083-28.892-6.63-31.97m-16.277 61.89c-18.313-4.818-24.143-22.546-19.28-41.026 4.885-18.568 18.752-31.011 36.977-26.223 18.207 4.797 24.156 22.459 19.276 41.027-4.859 18.475-18.66 31.041-36.973 26.223M182.963 1030.81a10.6 10.6 0 0 0 1.957-3.829 156.86 156.86 0 0 0 2.7-15.943l5.13-39.646c-10.93-1.363-13.7-.58-18.493 2.26l4.49-10.148c3.412.752 10.943 1.57 20.115 2.722 6.125.773 24.403 2.418 24.403 2.418l.624 10.152c-4.032-4.67-8.213-5.078-17.31-5.8l-5.114 39.779c-.457 3.698-2.493 16.55-.475 20.353-2.194-.25-5.839-.655-8.886-.963-3.157-.32-7.32-1.046-9.14-1.354M270.004 1017.035c.12 11.942-9.585 20.586-24.508 20.362a30.056 30.056 0 0 1-20.014-6.894l2.423-11.327a20.042 20.042 0 0 0 16.303 12.567 11.34 11.34 0 0 0 12.667-10.997c.075-5.06-2.712-8.117-14.439-14.22-11.23-5.803-15.41-11.59-15.41-20.225 0-11.74 10.222-17.71 22.225-17.724a38.746 38.746 0 0 1 18.867 4.78l-2.502 10.368c-5.355-7.145-10.196-9.805-16.048-9.889a8.628 8.628 0 0 0-9.81 8.983c.049 6.441 7.141 9.937 16.717 15.292 11.006 6.156 13.46 12.329 13.53 18.924M324.375 980.483a24.101 24.101 0 0 1 .813 4.432 26.142 26.142 0 0 1 .03 4.415 19.826 19.826 0 0 1-5.192 11.52 26.009 26.009 0 0 1-18.687 7.624c-3.09.189-3.834-.761-4.045-2.981l-.017-.489s-.066-.861.611-.905l.774-.075a12.56 12.56 0 0 0 8.692-4.467 18.533 18.533 0 0 0 3.157-13.252 15.385 15.385 0 0 0-5.588-11.718 14.593 14.593 0 0 0-10.346-2.818s-1.486.123-3.13.373a.948.948 0 0 0-.88 1.038l3.962 41.115c.352 3.619 1.332 16.365 4.309 18.999 0 0-3.377.356-9.753.88-4.85.386-8.635.492-8.635.492a33.925 33.925 0 0 0 .743-13.253l-3.069-32.422c-.352-3.71-.985-16.435-4.014-19.579 0 0 8.138-1.205 23.206-2.625a29.042 29.042 0 0 1 19.896 4.028 17.746 17.746 0 0 1 7.163 9.668M385.98 993.74a23.698 23.698 0 0 1-18.286 30.091c-10.42 2.603-25.431-1.217-29.622-19.504l-5.091-21.58c-1.35-6.037-3.544-16.738-7.048-19.522 0 0 3.909-.558 10.047-1.706 6.133-1.138 8.982-1.816 8.982-1.816-1.609 2.533.08 12.527 1.68 19.874l6.507 27.44a16.746 16.746 0 0 0 5.633 10.496 10.088 10.088 0 0 0 7.782 1.394 9.639 9.639 0 0 0 6.842-4.67 17.305 17.305 0 0 0 .338-11.897l-7.307-27.437c-2.001-7.549-4.3-17.002-6.772-18.585 0 0 2.977-.81 8.618-2.418 4.27-1.223 6.81-1.966 8.658-2.612-1.68 4.129 2.339 16.787 3.183 20.419zM452.565 988.118a5.939 5.939 0 0 0 4.279.378 9.181 9.181 0 0 1-2.392 4.111 12.575 12.575 0 0 1-13.53 4.344 102.994 102.994 0 0 1-28.337-20.942.462.462 0 0 1 .264-.624l.633-.277a14.427 14.427 0 0 0 6.613-19.76 14.967 14.967 0 0 0-8.376-8.719 13.192 13.192 0 0 0-9.067.502 13.908 13.908 0 0 0-3.214 1.714s-.492.405.084 2.098l13.063 37.294c1.978 5.496 5.426 16.193 8.547 18.005 0 0-3.526 1.39-8.872 3.324-5.36 1.93-8.618 2.827-8.618 2.827 1.09-4.16-3.025-15.486-4.059-18.665l-8.455-25.202c-2.11-6.064-5.957-16.959-9.097-18.691a196.38 196.38 0 0 0 20.02-7.554 31.565 31.565 0 0 1 20.963-2.528 15.05 15.05 0 0 1 8.715 6.239 20.632 20.632 0 0 1 1.952 3.636 17.77 17.77 0 0 1 1.033 3.689 17.035 17.035 0 0 1-2.088 11.674 21.769 21.769 0 0 1-6.222 6.867 109.615 109.615 0 0 0 26.161 16.26"/></g></svg>